<?xml version="1.0" encoding="UTF-8"?>
<svg xmlns="http://www.w3.org/2000/svg" version="1.1" viewBox="0 0 1280 1280">
  <defs>
    <style>
      .cls-1 {
        fill: #fff;
      }
    </style>
  </defs>
  <!-- Generator: Adobe Illustrator 28.6.0, SVG Export Plug-In . SVG Version: 1.2.0 Build 709)  -->
  <g>
    <g id="Layer_1">
      <g>
        <path class="cls-1" d="M562.2,1025.4c-7.5-2.9-19.3-28.6-29.8-64.7q-7.1-26.1,1.7-33.6c7.1-5.4,9.2-11.6,9.2-27.4-.4-18.3-1.7-20.7-15.1-29.5-10.1-5.8-18.5-8.3-25.2-6.6-5.5,1.2-15.5.4-22.6-1.7-14.7-5.4-16.4-1.2-4.2,9.5,6.7,5.8,8.4,12.9,8.4,34s-1.7,26.1-4.2,26.1-2.9,2.9.4,9.1c5.5,10,2.1,51.4-5,59.7-2.9,3.3-.8,5.4,7.5,6.6,6.7,1.2,15.5,3.7,20.1,5.4,6.7,2.9,7.5,2.5,3.4-2.5-3.4-3.3-5.5-17.8-5.5-38.6s1.7-31.5,3.4-29.5c2.1,2.5,8,17.8,13.4,34,7.1,23.6,13,33.6,25.6,44.8,15.9,14.1,24.7,18.3,24.7,10.8s-2.9-4.6-6.3-6.2ZM511.9,923.4l-10.5,9.5v-25.3c0-14.1,1.7-25.7,3.8-25.7,20.1,0,23.9,25.3,6.7,41.5Z"/>
        <path class="cls-1" d="M615.5,861.5c-5.5,2.1-17.2,3.7-26.4,3.7s-20.5-2.1-25.2-4.1c-4.2-2.5-8-3.7-8.4-3.3,0,.8-.4,10-.8,20.7l-1.3,19.9,8.8-8.3c5-4.6,10.9-8.3,13.4-8.3s5.5,24.9,6.7,77.6c1.3,43.1,2.9,80.5,3.4,83,1.3,5.8,7.5,7.5,8.4,2.1,0-1.7,1.3-6.6,2.9-11.2,1.3-4.6,2.1-40.7,1.7-80.1-.4-59.7.4-71.3,5.5-71.3s8.4,3.7,11.3,8.3c8,12.9,10.5,10,10.1-12-.4-19.5-.8-19.9-10.1-16.6Z"/>
        <path class="cls-1" d="M743.4,1031.2c-17.2,0-30.6-19.1-47.4-68-9.6-27.4-9.6-29.9-2.9-34.4,3.8-2.9,8.4-5.4,10.5-5.4s3.4-11.6,3.4-26.1l-.4-25.7-15.9-7.5c-8.4-3.7-17.6-6.6-19.7-6.2-2.1,0-12.2,1.7-22.6,2.9-11.3,1.7-16.8,3.7-13.8,5.8,3.8,2.1,5,22.4,5,70.5s-.8,68-7.1,75.1c-6.7,7.5-6.7,7.9,3.4,5.4,5.9-1.7,15.9-2.9,23.1-2.9s10.9-1.2,7.1-5c-5.5-5.4-7.1-69.7-1.7-69.7s7.5,13.7,13,29.9c5.5,16.6,12.2,34.8,15.1,40.7,8.8,17.4,60.8,38.6,60.8,24.9s-4.2-4.1-9.6-4.1ZM676.7,919.6c-5.5,4.1-10.9,7.5-12.6,7.9-2.1,0-3.4-11.2-3.4-24.9,0-21.2,1.3-24.9,7.5-24.9,18.9,0,24.3,28.2,8.4,41.9Z"/>
        <path class="cls-1" d="M790.4,883.9l-18.9-13.3c-10.1-7.5-18.5-11.6-18.5-9.5s-6.3,7.9-13.4,12.9l-13.8,8.7.8,52.7.4,52.3,17.2,17.8c9.6,10,17.2,14.9,17.2,11.6s6.7-11.6,14.7-18.7l14.7-12.4-.4-51v-51ZM763.9,984.7c-10.1,10.4-18.5-.4-20.1-26.1-1.3-24.5,1.7-28.6,9.6-13.7l5,9.1,4.6-10c3.8-9.1,4.6-7.9,5.9,12,.8,15.8-.4,24.5-5,28.6ZM766.5,931.7c-1.7,0-5.5-2.1-8.4-5-3.8-3.7-5-3.7-5,0s-2.5,5-5.5,5c-4.6,0-5.5-30.3-.8-44.8,2.1-6.2,11.3-6.6,18,0,5.5,5.4,7.1,44.8,1.7,44.8Z"/>
        <path class="cls-1" d="M872.5,939.9c-2.1,0-13.8-6.6-26-14.9-23.5-15.8-28.5-28.6-15.9-39,5-4.1,7.5-4.1,12.6,0,3.8,2.9,5.9,7.9,4.6,11.2-4.6,11.6,5,4.6,15.9-11.2,11.3-17.4,14.3-25.7,5.9-17.4-2.9,2.9-8,5-11.3,5s-10.5-4.1-15.9-8.7c-8.4-8.3-9.6-8.3-12.2-2.1-1.3,3.7-7.5,9.5-13,12.4-8.8,4.6-10.9,8.7-11.3,24.5-.4,19.1,0,19.5,23.5,34.8,22.2,14.5,24.3,17,24.3,30.7s-2.9,17.4-7.5,21.6c-6.7,6.2-8.4,6.2-16.8.4-7.1-4.6-8.8-9.1-7.1-17.4,2.1-9.1.8-7.9-6.7,5.4-5,9.1-12.6,21.2-17.2,26.5-10.1,13.3-7.5,14.9,8.8,5.8q13.4-7.5,22.6,2.9l8.8,10.4,17.6-17.4c15.9-15.3,17.6-19.5,19.3-40.2.8-13.7-.4-23.2-2.9-23.2Z"/>
        <path class="cls-1" d="M914.5,862.8c-9.2,0-21-1.2-26.4-2.9-8.8-3.3-9.2-2.5-7.1,6.6,1.7,5.8.8,14.1-1.7,18.7-5.9,11.2-.4,15.3,6.7,5,3.4-4.6,9.6-8.3,14.3-8.3,8.4,0,8.4,2.1,7.5,65.1-.8,64.7,2.5,104.9,8.8,104.9s8.4-40.2,8.4-107,.8-63.1,6.3-63.1,8.8,4.6,11.3,10.4c7.5,16.6,10.5,12,8.4-11.6l-1.9-19.4c-2,0-3.9.1-5.2.3-6.7.4-20.1,1.2-29.4,1.2Z"/>
        <path class="cls-1" d="M1023.9,1005.1c0-7.1,1.7-19.1,3.4-25.7l2.9-12.4-10.9,11.2c-7.1,7.9-15.1,11.6-23.5,11.6h-12.6l1.3-24.1c1.3-21.2,2.1-23.6,9.6-22.4,4.6.8,10.1,4.6,12.6,8.3,3.4,5.4,4.6,2.5,6.7-13.7,2.9-24.5,2.1-26.5-8-17.4-15.5,13.7-21.8,9.1-21.8-15.8s.4-22.8,10.5-22.8,11.7,2.9,13.8,8.7c4.6,11.6,11.3,3.3,15.1-18.3,2.9-15.3,2.9-15.8-6.3-10.8-6.3,3.3-17.6,3.7-34.8,1.7-10.5-1.2-22.2-2-30.6-2l6.7,5.7c11.7,10.8,13,57.7,1.7,64.3-7.1,3.7-7.1,4.1,0,6.6,5.9,2.5,7.1,8.3,7.1,31.1s-1.3,29-9.2,34.4c-9.2,6.2-7.5,6.6,22.6,4.1,27.7-2.1,32.7-1.2,35.2,4.6,4.2,10.8,8.4,7.5,8.4-7.1Z"/>
        <path class="cls-1" d="M949.1,861.3c.8,0,1.5,0,2.3,0l-2.5-2.2.2,2.2Z"/>
        <path class="cls-1" d="M462,931.7c-7.1,0-7.5-2.5-5.5-24.9q2.1-24.5-12.2-32.8c-8-4.6-14.3-10.4-14.3-12.9,0-7.1-5.9-4.1-15.9,8.7-5.5,6.6-12.6,12-15.5,12-4.2,0-5,5.4-3.4,23.2,2.1,19.1,1.3,24.5-4.6,28.6-5.9,4.6-6.3,5.4-.4,7.9,9.2,3.3,8.8,48.9-.8,56.8-5.9,5-4.6,6.2,11.7,8.3,20.5,2.9,24.3,1.7,17.2-5.4-2.9-2.9-5-14.9-5-27,0-19.9,1.3-22.4,10.9-26.1,5.9-2.5,11.3-4.1,12.6-4.1,4.2,0,1.3,52.7-3.4,57.2-3.8,3.7-2.1,5,8,5s16.4,1.2,20.5,2.9c7.1,2.5,7.1,2.1.4-7.1-10.1-14.5-10.1-60.1.4-66q6.7-4.1-.8-4.6ZM432.7,931.7c-3.4,0-8.8,1.2-12.6,2.5-5.5,2.1-6.7-1.2-6.7-19.9s2.1-24.5,5-27.4c2.9-2.9,6.3-5,7.5-5,7.5,0,12.6,12,12.6,29.9s-1.7,19.9-5.9,19.9Z"/>
        <path class="cls-1" d="M367.2,940.4c0-48.9,1.3-62.6,6.7-70.1,8.8-12.9,5.5-14.9-11.7-7.9-12.6,5-15.9,10.4-27.7,39.4-7.5,18.7-13.4,35.7-13.4,37.7,0,14.1-8-.4-21-36.9-12.2-35.7-15.5-41.5-23.5-41.5s-12.2-1.2-15.9-2.5c-8.4-3.3-8.8,1.2-.4,9.1,9.6,9.5,9.2,120.3-.8,134q-6.7,10,3.4,7.5c5.5-1.7,14.7-2.9,20.1-2.9,8.4,0,9.2-1.2,5.5-5-5.5-5.4-7.1-78-1.7-78s26,69.3,26,80.1,2.1,7.1,4.2,7.1,4.2-4.1,4.2-9.5c0-12,21.8-77.6,26-77.6s4.2,73.8-.8,76.7c-6.3,4.1-5,10.4,2.5,10.4s12.2,3.7,19.3,8.7c15.5,11.2,19.7,7.5,8-7.1-8-10-8.8-16.2-8.8-71.8Z"/>
        <path class="cls-1" d="M241.9,980.2c1.7-34,10.3-36.7-6.7-39.6-12.4-6.3-24.8-16.3-40.7-28.8-26.4-22.4-27.6-22.7-27.6-39.3s.8-19.2,9.2-23.4c8.8-5,11.3-5.2,22.7,3.1,7.1,5,13.6,8.5,13.4,11.8-.2,3.3-1.6,4-3.3,7.7-1.7,3.7-4.7,11.7,2.5,4.6,3.8-4.1,12.4-16.4,23.7-30.5,14.6-19.4,52.8-45.5,51.8-48.9-1.2-4.2-5.4-1.9-17.8,3.7-10.8,7.3-25.5,14.3-30.1,17.2-12.4,8.2-29.7,6.9-45.1-4-.4-.3-.7-.5-1-.9-2.1-2.1-11.1-10.7-13.4-10.3-2.1.4-6.6,8.4-8,10.9-.3.5-.6,1-1,1.5-1.6,1.7-5.8,6-8.2,6-2.4,0-9.2-1.7-11.7-2.3-.6-.2-1.2-.4-1.8-.7-12.8-7.2-16.9-3-5.8,5.9,8.4,7.1,7.4,10.4-1.4,10.4s-7,6.2-6.5,37.3l.4,31.4c0,2.4,1.2,4.6,3.2,6l13.6,9.4c8.8,6.2,26.4,18.7,38.2,27.8l18.8,13.9c1.9,1.4,3,3.6,3,6v22c0,23.2-1.3,27-13,38.6l-8,8.2c-2.6,2.7-6.9,3-9.9.8l-7.7-5.6c-10.9-7.9-12.2-11.2-10.5-24.5,2.9-20.3-2.1-19.9-11.3.4-7.5,16.6-34,46-41.1,46s-2.9,1.7-1.3,3.7c1.3,2.5,7.1,2.5,15.1-.4,0,0,.1,0,.2,0,6.4-2.3,12.3,4.5,9.2,10.4-9.5,18.2-26.8,49.8-41.5,70.9-6.7,9.5-14.5,22.1-13.6,25,2.1,8.7,56.6-53.9,67.1-76.7,5.5-11.2,11.7-20.3,14.7-20.3,6.3,0,22.2,19.9,22.2,28.6s3.8-.8,8-10c11.7-25.3,36.9-51.9,49.1-51.9s13-3.7,5.5-11.2c-2.9-2.9-4.2-17.8-3.4-39.8Z"/>
        <path class="cls-1" d="M1174.5,1120.4c-18.5-30.7-28.1-55.6-46.1-116.1-6.3-20.7-13-42.7-15.1-49.4-6.3-19.9-4.6-25.3,12.2-35.7,15.5-9.5,15.9-10.8,13.4-27.8-1.7-10-1.7-26.1,0-36.5,2.5-16.6,2.1-18.7-5-18.7s-9.6-2.5,2.9-17.4c13.8-16.2,10.9-19.1-7.5-7.9-14.3,8.7-28.1,11.6-28.1,5.4s-19.6-3.8-43.1-2.6c-39.9,2-63.6-11.1-65.2-7.2-1.2,3,25.1,11.8,39.2,27.2,10.1,11.1,10.4,14.1,10.4,52.7s-1.7,41.5-4.6,43.6c-3.4,1.7-3.4,3.7,0,7.1,5.9,5.8,6.3,79.6.4,90.4-2.5,4.1-8,7.9-12.6,7.9s-9.2,1.7-10.5,4.1c-1.3,2.5,1.7,4.1,6.7,4.1,13.4,0,35.6,14.9,46.1,31.5,5,7.9,9.6,13.7,10.5,12.9,1.3-.8-.8-12-4.2-24.9-9.6-37.3-7.5-126.5,2.9-114.9,1.7,2.1,41.1,119,42.4,126.5.8,5.8,75.1,93.3,79.3,93.3s-.4-8.3-24.3-47.7ZM1099.4,902.6c-5,3.3-13,10.8-18,16.2l-9.6,10v-37.7c0-20.7-1.3-40.2-2.5-44-3.4-8.7,6.7-8.7,22.6.4,10.9,6.2,13,10,14.3,28.2,1.7,17.4.4,21.6-6.7,27Z"/>
        <path class="cls-1" d="M505,203.3c4.4,1.3,5.3,0,3.1-6.2-1.8-4.9-4.4-15.5-5.8-24-2.2-12.9-1.3-14.7,3.6-10.2,9.3,8.9,13.3,6.7,10.7-5.3-1.3-6.2-3.1-16-4.4-22.2-1.3-6.2-4-10.7-5.8-10.7-1.8.4-7.6,1.8-12.9,2.7-12,2.2-12-.4-2.2,40.9,4.4,18.7,10.2,33.8,13.8,35.1Z"/>
        <path class="cls-1" d="M534.8,162c-1.8-14.2-1.3-16.4,3.1-11.1,7.6,9.3,28.9,5.8,44.4-7.1,7.1-5.8,14.7-10.7,16.9-10.7s3.6-1.8,2.2-4c-1.3-2.2-20-4-40.9-3.6l-38.2.4,3.1,20c4,26.7,12.4,41.3,9.3,16Z"/>
        <path class="cls-1" d="M713.8,159.7c11.1,0,12.4,1.3,10.2,11.1-.9,6.2,0,11.1,2.2,11.1s14.7-39.5,14.7-51.1-63.5-7.1-74.2-3.6c-9.3,3.1,32.9,32.4,47.1,32.4Z"/>
        <path class="cls-1" d="M755.6,169.5c7.1-1.3,8,0,5.8,6.7-1.8,4.4-4.4,13.8-5.8,21.3-2.2,12-1.8,12.4,4,6.7,5.8-5.8,21.3-57.3,21.3-70.2s-21.8-9.3-26.2-3.6c-4,5.3-10.7,31.5-8.9,36.9.4,2.2,4.9,2.7,9.8,2.2Z"/>
        <path class="cls-1" d="M630.3,168.6c17.3,0,21.8,1.3,21.8,7.1s-4,7.1-29.3,4.9c-28.4-2.2-28.9-1.8-20.9,6.7,4.4,4.9,7.1,14.2,6.7,22.2-.9,7.6,1.3,15.5,4.4,17.8,10.7,6.2,35.5,3.6,51.1-5.8,16-9.8,21.8-8.9,17.3,2.7-4,10.7-29.3,20-41.3,15.1-7.1-2.7-12-1.8-16.9,3.6-4,3.6-5.8,8-4.4,9.3,1.3,1.3,4.9,0,7.6-2.7,3.6-3.6,6.7-4,11.1-.4,9.3,8,6.7,13.3-4.9,10.2-12-2.7-16,5.8-16,36.9v19.1h20c20.4,0,23.5-3.1,24-26.7,0-3.6,1.8-13.3,3.1-21.3,2.7-13.3,5.8-16,18.2-14.7,2.7.4,6.2-5.8,8-13.3,3.1-12.9,3.6-13.3,8-5.8,2.7,4.4,7.1,10.2,10.7,12,3.1,1.8,5.8,6.7,5.8,10.7,0,5.8-1.3,6.2-5.3,2.2-3.1-3.1-8-5.3-11.1-5.3-4.9,0-4,2.7,1.8,11.1,9.8,13.3,11.1,13.3,17.3.9,5.3-11.6,3.1-43.1-3.1-43.1s-4-4.9-4-10.7-3.1-11.6-8.9-12.9c-5.3-1.3-8.9-6.2-8.9-12,0-14.7-7.6-25.8-27.5-40-17.3-12.9-28-14.7-51.1-10.2-10.2,1.8-12.9,11.1-7.6,25.3,1.8,5.3,8.9,7.1,24.4,7.1ZM629.9,217.5c-8.9,0-11.6-4.9-5.8-10.2,5.3-5.8,14.7-3.1,14.7,3.6s-4,6.7-8.9,6.7ZM624.1,298.4c-.9,5.8-1.8,1.3-1.8-9.8s.9-15.5,1.8-10.2c.9,5.8.9,14.7,0,20ZM633,287.3c-1.3-8.9-.9-16.4,1.8-16.4s4,8.4,4,18.7c0,21.8-2.2,20.9-5.8-2.2ZM646.3,298.4c-.9,5.8-1.8,1.3-1.8-9.8s.9-15.5,1.8-10.2c.9,5.8.9,14.7,0,20ZM657.4,187.3c8-8,16.9-6.2,16.9,3.1s-8,13.8-18.2,13.8-4.9-10.7,1.3-16.9Z"/>
        <path class="cls-1" d="M463.3,172.6c3.1-3.6,6.7-10.2,7.6-15.1.9-6.7-1.3-9.3-9.8-10.2-6.2-.9-12.9,0-14.2,1.8-1.8,1.8,0,8.9,3.6,16.4,5.8,11.1,8,12,12.9,7.1Z"/>
        <path class="cls-1" d="M791.1,187.3c13.8,10.7,16.4,9.8,16.4-4.9s2.2-14.7,4.4-16c5.8-3.6,5.8,8.9,0,28.4-4.9,16.9-2.7,22.7,4.9,15.1,4-4,20.4-45.3,21.8-53.8,0-.4-4.9-.9-11.1-.9s-11.1-2.2-11.1-4.4-5.8-4.4-12.4-4.4c-10.7,0-13.3,2.7-17.8,16.4-4.9,15.5-4.4,17.8,4.9,24.4Z"/>
        <path class="cls-1" d="M447.3,204.2c4.9,0,2.2-20-4.4-39.1-3.6-9.3-17.3-14.2-17.3-5.8s17.8,44.9,21.8,44.9Z"/>
        <path class="cls-1" d="M377.5,182h-14.2l17.8,16c15.1,13.8,18.7,15.1,24.9,10.2,5.8-4.9,6.2-4,4,7.6q-2.7,12.4,4,4.4c9.3-11.6,8.9-35.1-.4-46.2-9.8-11.6-27.1-15.5-40-8.9-11.1,5.3-14.2,13.8-4,9.8,3.6-1.3,10.2-.4,14.7,2.2,6.7,4,5.8,4.4-6.7,4.9Z"/>
        <path class="cls-1" d="M882.2,213.5c25.8,20.4,29.8,22.2,34.2,15.5,6.7-8.9,12.9-9.3,9.3-.4-1.3,3.6-.9,6.7,1.3,6.7,8.4,0,9.3-23.1,1.8-39.1-13.3-27.1-44-41.8-66.2-32-22.7,9.3-18.7,19.5,19.5,49.3ZM912.9,202.4c4.9-4.9,10.2-2.7,10.2,4s-1.8,6.7-4,6.7c-5.8,0-9.8-7.1-6.2-10.7ZM896,184.6c6.7,4.9,8.4,8.9,5.8,11.6-5.8,5.8-23.1-3.6-23.1-12s4.4-8.4,17.3.4Z"/>
        <path class="cls-1" d="M455.3,237c-9.3,13.8-28.4,70.6-36.9,109.3-14.2,64.9-23.5,114.6-26.2,140.8-1.8,15.5-3.6,28-4.4,28s-13.3-3.1-27.5-6.2c-25.3-6.7-35.1-8-80-14.2-27.5-3.6-33.3,4.9-6.7,9.8,8.9,1.3,22.7,4.4,29.8,6.7,11.1,3.1,10.2,3.6-8,2.2-31.1-2.2-24,7.1,10.7,13.8,15.5,3.1,44.4,8.4,64,11.6,19.5,3.1,38.2,7.1,41.3,8.9,5.8,4,7.1-.4,13.8-45.8,18.7-121.3,40-214.1,58.2-250.6,4.9-9.8,8-18.2,7.1-19.1-.4-.4-7.1-2.2-14.2-4-11.1-2.2-14.7-.4-20.9,8.9ZM338,524.9c-3.1-.9-5.8-3.6-5.8-5.8,0-5.3,16.4-5.3,19.5,0,3.1,4.9-6.2,8.9-13.8,5.8ZM417.1,453.9c-6.2,50.2-9.8,76.4-11.1,77.7s-5.3,0-10.7-1.3c-7.6-2.2-8.4-3.6-3.6-8.4,3.1-3.1,9.3-28.4,13.8-56.4,4-27.5,8.9-52,9.8-53.8,5.8-9.8,6.2,4.9,1.8,42.2ZM425.5,399.7c-2.2,0-4.4-4-4.4-8.9s2.2-8.9,4.4-8.9,4.4,4,4.4,8.9-1.8,8.9-4.4,8.9ZM439.3,353c-5.3,3.1-10.7-5.3-7.1-11.1,4-6.7,11.1-5.3,11.1,1.8s-1.8,7.6-4,9.3ZM440.2,304.6c-3.6-3.6,2.2-16,7.6-16s4.4,2.7,4.4,6.2c0,7.1-8,13.8-12,9.8Z"/>
        <path class="cls-1" d="M776.9,246.4c20.9,35.1,47.1,139.9,64.4,254.6,6.2,42.6,8.4,49.8,14.7,47.5,8.4-3.6,109.7-21.3,177.3-31.5,19.5-3.1,21.8-5.8,14.2-20-5.3-9.8-17.8-10.7-53.8-4-13.3,2.2-42.2,7.6-64.4,11.1-22.2,3.6-43.1,7.6-46.6,8.9-5.3,1.8-8-8.4-14.7-49.8-14.7-94.2-36-177.3-55.1-212.4-10.7-19.5-13.8-22.2-26.7-22.2-8-.4-15.5.4-16.4,1.3-.9.9,2.2,8.4,7.1,16.4ZM992.8,504.5c4.9-4.9,10.2-2.7,10.2,4s-1.8,6.7-4,6.7c-5.8,0-9.8-7.1-6.2-10.7ZM925.3,515.2c4,0,6.7,2.2,5.8,4.9-.9,2.7-3.6,4.4-5.8,4.4s-4.9-1.8-5.8-4.4c-.9-2.7,1.8-4.9,5.8-4.9ZM852,446.3c1.8.9,4.4,12.4,5.8,25.3,1.3,12.9,4,30.2,5.8,37.8,1.8,9.3,1.3,14.7-1.8,14.7s-6.2-9.3-7.6-21.3c-1.8-11.6-4.4-26.7-6.7-33.3-4-12.9-1.3-26.7,4.4-23.1ZM832,386.3c4-6.7,11.1-5.3,11.1,1.8s-1.8,7.6-4,9.3c-5.3,3.1-10.7-5.3-7.1-11.1ZM816.9,291.2c2.2,1.3,4,5.3,4,8.9,0,6.2-5.3,8.4-10.2,3.6-4-4,1.8-15.5,6.2-12.4Z"/>
        <path class="cls-1" d="M269.6,385.4c5.8,10.7,34.2,15.1,40.9,7.1,2.7-3.1,5.8-16.9,7.1-30.7,2.2-20.9,4.4-26.2,14.2-32,31.5-19.5,39.1-25.8,38.7-32-.9-11.1,21.3-9.3,23.1,1.8,1.8,11.6-18.7,65.8-25.3,68-7.6,2.7-6.2-24,2.2-39.5,3.6-7.6,5.8-14.7,4.9-15.5-3.6-3.6-29.8,20.9-27.1,25.3,1.3,2.2-1.3,4-5.3,4-7.1,0-7.1.4.9,6.7q8,6.2-2.7,6.7t-2.7,6.7c8,6.2,8,6.7.4,9.8-7.1,2.2-5.3,4.4,9.3,10.7l17.3,8h-16.4c-8.9.4-17.3,1.8-18.2,3.6-.9,2.2,1.3,11.1,5.8,20.4l7.6,16.9,13.8-21.3c13.8-20.9,14.2-20.9,14.2-8,0,22.2,7.1,7.6,30.7-66.2,12.9-39.1,25.3-73.7,28-76.9,3.6-4.4,1.8-5.8-8-5.3-7.1,0-14.7.9-17.3,1.8-2.2.9-9.8,2.7-16,4-12,2.7-49.3,30.7-52.4,39.5-.9,2.7,3.6,3.6,12.4,1.8,21.8-4.4,12,4.9-11.1,10.7-14.7,4-21.8,8.4-26.7,17.8-3.6,7.1-9.3,12.9-12.4,12.9s-7.6,3.1-8.9,7.1c-4,10.2-3.6,10.7,6.2,10.7s11.1,5.3,4.4,18.2c-5.8,10.7-20.4,11.1-26.2.9-5.8-10.7-11.1-4-5.3,6.7ZM399.3,266.4c2.7,0,3.1,4.4,1.3,9.8-3.6,12.4-5.3,14.7-8.9,11.1-4-3.6,2.7-20.9,7.6-20.9Z"/>
        <path class="cls-1" d="M831.6,260.2c1.8,4.9,7.1,21.3,12,37.3s12.4,40.9,16.9,55.5c8.9,27.5,17.8,60.4,20.9,75.1,1.8,9.8,6.2,15.5,6.2,8s2.2-5.3,4.9-5.3,3.6,3.6,2.2,7.6c-1.3,4.4-.4,11.1,1.8,14.7,3.6,5.3,4.4,5.3,4.9-2.2.4-4.9.4-12.4,0-16.9-.4-4,1.3-7.6,3.6-7.6s4.9,2.2,4.9,5.3,3.6,16.9,7.6,31.1c8,27.1,15.5,32,26.7,17.8,5.3-6.7,5.8-6.7,4.9,0-1.8,8.9.4,9.8,23.1,5.8,21.3-3.6,24.4-7.6,16.4-20.9-3.6-5.8-8-16-9.3-22.7-4-16.4-11.6-11.1-11.6,8.4s-1.8,15.1-4.4,15.1-4.4-9.3-4.4-21.3-2.2-24-4.4-27.5c-3.1-5.3-5.8-4.9-15.1,4-14.7,13.8-18.7,9.8-9.3-8,9.3-18.2,5.8-22.7-18.2-22.7s-22.7-6.7,0-10.7c11.6-2.2,15.1-4.9,14.7-11.6-.4-5.3-4-8.9-8.4-8.9-10.2,0-10.2-4,0-11.6,6.7-5.3,6.2-5.8-5.8-6.2-7.1-.4-10.7-1.8-7.6-3.1,2.7-.9,5.3-3.6,5.3-5.8,0-4.9-26.7-24-29.3-20.9-1.3,1.3,1.8,10.2,6.7,20.4,9.8,19.1,12,38.2,4.9,42.6-5.8,3.6-14.7-16-24.4-52.9-7.6-29.8-7.6-30.7,0-36.9,11.6-8,14.2-7.6,25.8,4.9,5.3,5.3,17.8,12.9,27.5,16,9.8,3.1,22.2,9.3,27.5,14.2,14.2,12.9,22.7,5.3,9.3-8.4-27.5-29.8-68.4-51.1-107.5-56.9-20.4-3.1-21.8-2.7-18.7,4.9Z"/>
        <path class="cls-1" d="M552.1,262.4c-1.8,2.7-2.2,5.8-.9,7.1,3.1,3.1,12-2.7,12-8s-7.6-5.3-11.1.9Z"/>
        <path class="cls-1" d="M505,282.4c-3.1,8.9-2.7,14.2,2.7,22.2,15.5,24,84,50.6,128.8,50.6s89.3-20,112.4-46.6c17.3-19.1,17.3-24.9,2.7-40.9l-11.1-12.4,2.2,12c6.2,28-12.9,45.8-64.4,61.3-35.5,10.7-54.2,11.1-89.7,1.8-49.3-12.4-69.8-27.5-69.8-50.2s-8.4-11.6-13.8,2.2Z"/>
        <path class="cls-1" d="M700.1,277.9c-.9-7.1-4-13.8-7.6-15.1-4.4-1.3-4.9.9-2.7,8.4,5.3,17.3,12,21.3,10.2,6.7Z"/>
        <path class="cls-1" d="M564.6,273c-3.6,9.8,2.7,14.7,7.6,6.7,5.8-8.9,5.3-13.3,0-13.3s-5.8,3.1-7.6,6.7Z"/>
        <path class="cls-1" d="M674.8,277c-3.6,4-4.4,10.2-2.7,14.7,3.1,7.6,3.6,7.1,6.7-.9,2.2-4.9,4-6.2,4-3.6.4,6.2,9.3,8,9.3,2.2s-2.7-7.1-5.8-11.6c-5.3-7.1-6.2-7.1-11.6-.9Z"/>
        <path class="cls-1" d="M589,297.5c8,0,10.7-8.9,5.3-15.5-7.1-8.4-17.8-8.4-17.8,0s2.7,5.3,6.7,4c4.9-2.2,5.8-.9,4,4.4-1.3,4-.4,7.1,1.8,7.1Z"/>
        <path class="cls-1" d="M947.5,330.3c-5.3-5.8-19.5-14.7-31.5-20.4-12-5.3-23.1-10.7-24.9-11.6-1.3-.4-4,.9-5.8,3.1-1.3,2.7,0,4.9,3.1,5.3,3.1,0,16.9,7.6,30.2,16.4,23.5,16,24.4,17.3,24.9,37.8.9,27.1,10.7,39.1,28.9,35.5,9.3-1.8,12.9-.9,13.3,3.6.9,16.9,4,31.1,8.4,38.2,4,6.2,4.4,4,2.7-12l-2.2-20,5.3,18.2c3.1,11.1,7.6,17.3,11.1,16.4,2.7-1.3,5.3-4,5.3-6.2s-1.8-3.6-3.6-2.2c-2.2,1.3-3.1-4-1.8-12,1.3-11.1.4-12.9-3.1-7.6-2.7,3.6-4.9,4.4-4.9,1.8s2.7-7.1,5.3-9.8c4.4-4.4,3.6-6.2-4.4-8-10.7-3.1-12.9-10.2-4.9-18.2,3.6-3.6,1.3-9.8-7.6-23.5-10.2-15.1-14.2-18.2-23.1-16.4-7.6,1.3-14.2-.9-20.9-8.4ZM978.6,365c13.8,6.2,14.2,11.6,1.3,16.4-7.6,3.1-12.4,1.8-18.7-4-4.4-4.4-6.7-10.2-5.3-12.9,4-6.2,8.4-6.2,22.7.4Z"/>
        <path class="cls-1" d="M270,336.1c0-2.7-8.9-9.3-20-14.7-11.1-4.9-20-8-20-6.7,0,3.1,33.3,27.1,37.3,27.1s2.7-2.7,2.7-5.8Z"/>
        <path class="cls-1" d="M1015.5,328.1c27.1-20,24.4-23.5-5.8-7.6-22.2,11.6-22.7,11.6-17.3,16.9s10.7-.4,23.1-9.3Z"/>
        <path class="cls-1" d="M757.8,460.5c-19.1-2.7-65.8-23.5-65.8-29.8s8.9,0,19.5,4.9c27.5,12,57.3,15.5,64,7.6,4.4-5.8-.4-7.6-31.5-12-55.1-8.4-57.8-14.2-5.3-11.1,39.1,1.8,43.1,1.3,34.2-4l-10.2-5.8,11.1-5.3c6.7-2.7,11.6-8,11.6-12,0-8.4.9-8.4-24,2.7-11.6,4.9-27.1,8.4-35.1,7.6l-14.2-1.8,13.3-3.6c37.8-9.8,55.5-22.7,55.5-40s-4.4-3.6-18.7,6.2c-21.8,15.1-64,31.1-82.2,31.1s-10.7,1.3-6.7,5.3c10.7,10.7,6.2,25.8-10.7,35.5-11.1,6.7-14.2,10.7-10.7,14.2s7.1,3.1,13.8-.9c8-5.3,11.1-3.6,29.3,16.9,10.7,12,22.7,22.2,26.2,22.2,10.7,0,7.1-6.2-16-25.8-12.4-10.7-22.2-21.3-22.2-24s4.4-.9,10.2,4.4c5.3,4.9,20.9,15.1,34.7,22.2l24.9,12.9-19.5,9.8c-28,13.8-51.5,12.4-63.1-3.1-16-20.9-18.7-23.5-23.1-20.9-2.2,1.8-4,7.6-4,13.8s-2.2,10.7-4.4,10.7c-4.4,0-4-8.9,2.7-45.8,1.3-6.7,5.3-12,8.4-12,10.2,0,12.4-8.9,4-18.2-9.3-10.2-31.5-11.1-45.3-1.3-8.9,6.2-9.8,6.2-9.8-.4s7.1-10.2,16-13.8c18.7-8,36.9-3.1,49.3,13.3,6.7,9.3,6.7,6.7-1.3-12.4-2.7-6.2,4-8.9,44.9-18.7,17.3-4,43.5-17.3,49.8-24.9,6.7-8.4,11.1-30.2,6.2-30.2s-6.2,3.1-8,6.7c-5.8,9.8-60.4,32.9-97.3,40.4-31.5,6.7-35.1,6.7-72.9-2.2-21.8-4.9-47.1-12-56-16-9.3-3.6-17.8-5.8-19.1-4.4-4.4,4.4,23.5,24,41.8,29.3,48.4,13.8,47.1,12.9,42.2,21.8-7.1,13.8-5.3,17.3,14.7,26.7,18.2,8.4,18.7,9.3,20,32,.4,12.9,2.2,27.1,3.6,31.1,4.4,14.2-7.1,8.4-14.7-7.6-8.9-18.7-13.3-19.5-20.4-3.6-2.7,7.1-7.1,13.8-9.3,15.1-2.2,1.8-2.7,6.2-1.3,9.8,1.3,4-.4,9.3-4,12-4.9,4.4-6.2,4-6.2-1.8s-2.7-7.1-6.2-7.1-5.3,3.6-3.6,11.1c2.2,13.3.4,12.9,18.7,3.6,36.9-18.2,80.9-11.6,117.3,18.7l24,19.1,7.1-17.8c3.6-10.2,5.8-20,4.4-22.2-1.3-2.2.9-3.6,4.9-2.7,5.3.9,10.7-6.2,20-25.8l12.4-27.5-17.8-2.2Z"/>
        <path class="cls-1" d="M495.3,394.8c-19.5-7.1-21.3-7.1-20-.4.9,4,7.6,9.3,14.7,11.6,25.3,7.6,26.7,8.9,8,10.7-10.7.9-19.1,3.6-19.1,5.8s6.7,4,16.9,2.2c8.9-1.3,28.4-3.6,43.1-4.9,40-4.4,25.3,4.9-19.1,12-35.1,5.3-46.2,13.3-22.2,16,9.8,1.3,26.2-4,63.1-19.1,19.5-8.4.4,7.6-24.4,20-25.3,12.9-29.8,17.3-23.1,23.5,3.1,3.6,30.2-12,46.2-26.7,20.4-18.7,18.2-4.4-3.1,16.9-11.1,11.6-18.2,21.8-16,23.5,2.7,1.3,13.3-7.1,24-18.7,15.5-17.3,20.9-20.9,28-18.2,12.9,4.9,20,4.9,20-.4s-4.9-6.7-10.7-8.9c-15.1-5.8-25.3-21.8-20.4-31.5q6.2-11.6-13.8-14.7c-21.8-3.6-60.4-20.9-73.7-33.8-11.6-10.7-14.7-11.1-14.7-2.7,0,12.4,25.8,32.9,48.9,38.2,12,3.1,22.2,7.1,22.2,8.9,0,5.3-28.9.4-54.6-9.3Z"/>
        <path class="cls-1" d="M274,418.3c.4-14.2-1.3-17.3-5.8-10.2-1.8,2.2-.9,8.9,1.3,14.7,4,9.3,4.4,9.3,4.4-4.4Z"/>
        <path class="cls-1" d="M324.2,435.2c4.9,0,4.4-3.1-.9-13.8-7.1-12.4-14.2-10.2-8,2.7,2.7,6.2,6.7,11.1,8.9,11.1Z"/>
        <path class="cls-1" d="M212.3,421.9c16,5.3,32,5.3,28.9,0-1.3-2.7-11.1-4.4-21.3-4-16,.4-16.9.9-7.6,4Z"/>
        <path class="cls-1" d="M1041.3,423.6c28.4-4,30.2-6.2,4.9-6.2s-21.8,2.2-23.1,4.9c-2.2,3.1,3.6,3.6,18.2,1.3Z"/>
        <path class="cls-1" d="M257.1,421.9c-2.2,0-5.3,3.1-6.7,7.1-4,9.8,1.3,14.2,6.2,6.2,5.3-8.4,5.3-13.3.4-13.3Z"/>
        <path class="cls-1" d="M574.8,468.1c-7.6,10.2-9.8,16.4-6.7,18.7,5.3,3.1,25.8-19.1,26.2-28.4,0-9.8-7.6-5.8-19.5,9.8Z"/>
        <path class="cls-1" d="M689,488.5c5.8,0,3.1-8.9-6.7-22.2-8.4-12-16.9-17.3-16.9-11.1s20,33.3,23.5,33.3Z"/>
        <path class="cls-1" d="M443.7,531.6c-.4,6.7-1.3,17.3-2.2,23.5s-1.8,13.3-2.2,16.4c-.4,3.6-6.7,5.3-16.9,4.4-13.3-.9-16.9.9-18.2,7.6-.9,4.9,1.8,11.1,5.8,14.2,5.3,4,6.7,9.3,5.3,16-1.8,5.8-.9,13.3,1.8,16.9,3.6,5.8,4.9,5.3,10.7-1.8,3.6-4.4,7.1-10.7,8-12.9.9-3.1,8.4-2.7,22.7,1.3,18.7,5.3,21.8,4.9,28.4-1.8,5.3-5.3,6.2-8.4,2.7-10.7-5.3-3.6-31.1-60-33.8-73.7-2.2-13.3-11.1-13.3-12,.4ZM446,596.9c-5.8-2.2-6.2-4-2.2-8.9,6.7-8,11.1-8,14.2.4,3.1,8-2.7,12-12,8.4Z"/>
        <path class="cls-1" d="M795.6,629.8l-2.2,22.7c-2.2,21.8-1.8,23.1,11.1,29.3,7.6,3.6,14.2,6.7,15.1,6.7s8.4-14.7,16.9-32c11.6-23.5,15.1-35.5,13.3-44.4-2.2-8.9-.9-13.3,4-15.1,7.6-3.1,8.9-9.8,3.6-18.2-2.7-4-7.6-4.4-17.8-1.8-11.1,3.6-14.2,3.1-14.7-2.2-.4-3.6-.9-7.6-1.3-9.8-.9-1.8-2.7-12.4-4.4-24.4-3.6-21.3-11.6-28.9-11.6-10.7s-4,17.3-8.9,26.7c-4.9,8.9-8.9,19.1-8.9,22.7s-4,10.7-8.4,16.4c-4.4,6.2-9.3,16.9-9.8,24-1.8,12.4-.9,13.3,11.1,12l12.9-1.8ZM800.5,596.5c8-16.9,11.6-17.8,22.2-6.2,9.8,10.7,10.2,36.9.9,51.5l-7.6,11.6-11.1-21.3c-10.7-20-11.1-21.8-4.4-35.5Z"/>
        <path class="cls-1" d="M547.7,541.8c-4.4,4.9-6.2,8.9-4,8.9,5.3-.4,19.5-11.1,19.5-15.1s-7.6-2.7-15.5,6.2Z"/>
        <path class="cls-1" d="M616.6,570.7c-21.8,4.9-15.1,11.1,12.4,11.1s34.2,2.2,44.9,4.9c10.7,2.2,20.4,3.1,21.8,1.8,3.6-3.6-13.8-20.4-25.8-25.3-18.2-7.1-48.9-11.6-48.9-7.6s2.2,4,4.4,4c10.2,0,3.6,8.4-8.9,11.1Z"/>
        <path class="cls-1" d="M963.1,572.5c0,2.2,2.7,5.3,5.8,6.7,2.7,1.3-3.1.9-13.3-.4-24-3.1-24,2.7,0,14.2,21.8,10.7,36,32,35.1,54.2-.4,10.2,1.3,14.7,4.9,13.3,6.2-1.8,6.7-36,.9-49.3-2.7-6.2-2.2-8,2.7-6.2,3.1.9,8,8.4,10.2,16,5.3,18.7,9.8,17.8,13.8-1.8,2.2-13.3.9-18.2-7.6-27.1-17.3-18.7-52.4-31.5-52.4-19.5Z"/>
        <path class="cls-1" d="M314.4,586.2c0-8.4-8.9-4.4-26.7,11.6-17.8,16-30.2,44.4-22.7,52,1.8,1.8,5.8-5.3,8.9-16,4.4-18.7,25.3-43.1,36.4-43.1s4-2.2,4-4.4Z"/>
        <path class="cls-1" d="M692.1,617.8c0-7.1-4.4-11.6-15.5-16.4-16.9-7.1-51.1-8.4-51.1-2.2s-4,5.8-8.9,7.1c-17.8,5.8-8,10.2,25.8,12,18.7,1.3,37.8,3.6,42.2,5.3,5.8,2.7,7.6,1.3,7.6-5.8Z"/>
        <path class="cls-1" d="M391.3,688c13.8-4.9,16-7.6,18.7-24.9,3.6-23.1-3.6-36.9-25.8-50.2-16.9-10.7-36-11.1-54.2-1.3-18.2,9.3-33.8,24-30.7,28.9,1.8,2.2,7.1,0,12.4-4.9,17.8-16.9,50.6-23.1,71.5-13.3,6.2,2.7,2.2,3.1-13.3,1.3-15.5-1.3-24.9-.4-30.7,4-8.4,6.2-8.4,6.7.9,9.3,10.2,3.6,12.4,9.3,5.3,13.8-2.7,1.8-1.8,5.3,2.2,9.3,3.6,4,6.7,9.8,6.7,13.3s3.1,6.2,6.7,6.2,8,3.1,10.2,7.1c3.6,6.2,6.2,6.7,20,1.3ZM373.1,661.3c-5.3-5.3-9.8-12.9-9.8-16,0-8.9,21.3-7.1,26.2,2.7,3.1,5.8,2.7,10.2-1.3,16-5.3,7.6-6.2,7.1-15.1-2.7Z"/>
        <path class="cls-1" d="M934.6,612.5c-21.3-9.8-25.8-9.8-50.2-.9-10.7,3.6-19.1,8.4-19.1,11.1s3.6,3.1,8,1.3c15.1-6.2,44-7.6,53.8-2.2,14.2,7.1,9.8,8.9-10.2,4.4-16-3.6-18.7-2.7-28.9,8.4-6.2,7.1-16,20.4-21.8,30.7l-9.8,18.2,9.8,3.1c5.8,1.3,15.5,6.7,22.2,11.6l12.4,8.4,23.1-17.8c12.9-9.8,26.2-21.8,29.3-26.7,3.1-5.3,8.4-9.3,12-9.3,16.9,0-5.3-28.9-30.7-40.4ZM940,647.1c-1.8,10.7-37.8,36.9-45.8,34.2-9.3-3.6-8.4-16.4,2.7-30.2,7.1-8.9,12.9-11.6,26.7-11.6s17.8,1.3,16.4,7.6Z"/>
        <path class="cls-1" d="M757.4,724c-3.1,0-38.2-14.2-78.2-31.1-39.5-17.3-74.2-31.1-76.9-31.1s-25.8-10.2-51.1-22.2c-25.3-12.4-48-22.2-50.2-22.2s-11.1,12-20,27.1c-18.2,31.1-29.8,57.8-27.1,60.9,4,3.6,52.9,18.7,55.1,16.9,4.4-4.4-4.4-10.7-23.5-16-11.1-3.1-20-6.2-20-7.6,0-5.8,16-32,25.8-42.2,10.7-11.6,11.6-12,24.9-4.9,7.6,4,46.6,18.7,87.1,32.9s93.3,32.9,117.3,41.3c24.4,8.9,44.9,15.1,46.2,13.8,3.6-3.6-3.1-15.5-9.3-15.5Z"/>
        <path class="cls-1" d="M465.9,645.8c4.9-6.2,4.4-8.4-4.4-15.5-14.2-11.6-17.8-10.7-25.3,7.1-3.1,8.4-6.2,17.3-6.2,20,0,8.9,9.3,4.4,13.3-6.7,2.2-6.2,6.7-11.1,9.3-11.1s4,3.1,2.2,6.7c-3.1,8.9,3.6,8.4,11.1-.4Z"/>
        <path class="cls-1" d="M585,632.9c-4.4-1.3-8.9-.4-10.7,2.2-4.4,7.1,1.8,11.6,19.1,14.7,10.2,2.2,14.2,1.3,14.2-3.1s-3.6-7.1-7.6-8.4c-4.4-.9-11.1-3.6-15.1-5.3Z"/>
        <path class="cls-1" d="M632.1,635.6c-1.8,2.7-2.2,5.3-1.8,5.8,4.4,3.6,57.3,6.7,57.3,3.1,0-10.7-49.8-19.1-55.5-8.9Z"/>
        <path class="cls-1" d="M336.7,644c-2.7,0-5.8,3.1-7.6,6.7-4,11.1,1.8,12.9,7.6,2.7,3.1-6.7,3.1-9.3,0-9.3Z"/>
        <path class="cls-1" d="M516.1,666.2c-4.9,0-6.2,2.2-4.4,7.1,1.3,4,2.7,8,2.7,8.9,0,1.3,2.2.9,4.4-.4,7.1-4.4,5.3-15.5-2.7-15.5Z"/>
        <path class="cls-1" d="M571.2,696.4c4,1.3,5.8-.9,4.4-6.2-.4-4-4-8.4-7.1-9.8-4-1.3-5.8.9-4.4,6.2.4,4,4,8.4,7.1,9.8Z"/>
        <path class="cls-1" d="M434.4,696.4c0-10.7-15.1-10.2-36.4.9-18.7,9.8-24.4,17.3-17.8,21.8,3.1,1.8,3.6,5.3.9,9.3-5.8,8.9-5.8,26.7,0,26.7s4.4-3.1,4.4-7.1c0-12.4,17.3-32,33.3-37.8,9.8-3.6,15.5-8.9,15.5-13.8Z"/>
        <path class="cls-1" d="M798.7,710.6c2.7-3.6,4-9.8,3.1-13.3-1.3-8-18.7-11.6-23.1-4.4-1.8,3.1.9,9.8,6.2,15.1,8.4,8,10.2,8.4,13.8,2.7Z"/>
        <path class="cls-1" d="M865.3,697.3c-19.5-9.8-25.3-10.7-36.4-4-12,6.7-9.8,11.6,7.1,14.7,20.4,4,36.4,17.3,43.1,36,7.1,19.5,11.1,19.5,14.2.9,2.7-19.5-7.1-36.9-28-47.5Z"/>
        <path class="cls-1" d="M758.7,715.1c6.2-9.8,5.3-12.4-4.4-17.8-7.1-4-9.8-3.6-12,2.2-1.3,4,.9,10.7,4.9,14.7,6.7,6.7,8,6.7,11.6.9Z"/>
        <path class="cls-1" d="M518.8,701.8c0,2.2,2.7,4.4,5.8,4.4s27.5,8.9,54.2,20c50.6,20.4,60,23.1,60,15.5s-2.7-4.4-5.8-4.4-27.5-8.9-54.2-20c-50.6-20.4-60-23.1-60-15.5Z"/>
        <path class="cls-1" d="M566.8,730.6c-25.8-11.6-57.8-20-50.2-12.4,7.6,7.1,68.9,29.8,72,26.7,1.3-1.8-8.4-8-21.8-14.2Z"/>
        <path class="cls-1" d="M482.4,754.6c-5.8-3.1-16-10.2-22.7-15.5-15.1-12.4-20-12.9-33.3-3.6-9.8,6.7-13.3,19.5-5.8,19.5s6.2-3.1,9.3-6.7c3.1-3.6,8-6.7,10.7-6.7s1.3,2.2-2.7,4.9c-13.8,8-8.4,16.4,17.3,28.4,24,10.7,25.8,11.1,31.1,4,8.4-11.6,7.1-18.7-4-24.4Z"/>
        <path class="cls-1" d="M804.5,732.9c-15.5,6.2-12.4,10.2,15.1,20.9,25.8,9.8,32.4,9.8,32.4-.4,0-15.1-29.8-27.5-47.5-20.4Z"/>
        <path class="cls-1" d="M545.9,741.7c-2.7,0-7.1,5.3-9.3,11.6-5.8,14.7-5.8,15.1,2.2,15.1s6.7-2.7,6.7-6.2,1.3-9.3,2.7-13.3c1.3-4,.4-7.1-2.2-7.1Z"/>
        <path class="cls-1" d="M558.4,755.1c-.4,4.9-.9,11.1-1.3,14.2-.4,2.7,2.2,5.8,5.3,6.7,3.6,1.3,5.3-3.1,5.3-13.8,0-16.4-8.4-22.7-9.3-7.1Z"/>
        <path class="cls-1" d="M603.2,749.7c0,4.4,69.8,26.7,95.5,30.2,28,3.6,10.2-4.9-37.8-18.2-23.1-6.2-45.8-12.4-49.8-13.8-4.4-1.3-8-.4-8,1.8Z"/>
        <path class="cls-1" d="M501,764c-2.2,0-4.4,4-4.4,8.9s2.2,8.9,4.4,8.9,4.4-4,4.4-8.9-1.8-8.9-4.4-8.9Z"/>
        <path class="cls-1" d="M801.8,793.3c3.1-2.7-24.4-10.7-49.8-14.2-14.7-1.8-20.9-1.3-17.8,1.8,4.9,4.9,64,16,67.5,12.4Z"/>
        <path class="cls-1" d="M183.5,442.5c11.8,6.4,21.1,11.4,25.1,15.8l.6.8c2.4,4.2-.3,8.4-1.8,10.7-1.2,1.8-2.5,3.7-3.8,5.6-3.1,4.5-6.3,9.2-8.6,13.7-7.2,12.8-9.3,23.2-6.5,31.9,4.2,13.2,20.1,22.1,35.1,29.1,4,2.2,8.1,4.9,9.2,9.2,1.2,4.6-1.3,8.7-4.7,14.2l-.6,1c-15.8,21.4-21,45.8-15,70.8,7.6,32.2,32.6,62.4,65.2,78.8,16.4,7.5,32.3,23.2,40.2,39.8,5.9,15.2,22.4,34.5,36.1,42.5,1.8,1,3.9.9,7.2.6,2-.2,4.2-.3,6.6,0,2.8.2,4.8-.5,6.9-1.3,1.9-.7,4.2-1.5,6.7-1.3,2.9,0,5.5,1.1,7.9,2l.9.4c40.9,20.4,108.7,13.7,154.5,1.7h.6c7.8-1,15.7-.5,23.3,0,8,.5,15.5,1,23,0,9.8-.8,17.4-.5,27.1,0,8,.3,17.1.7,29.9.6,2,0,4.1,0,6.1,0,26.2,0,58.1,5.1,89.1,9.9,22.6,3.6,43.9,7,62.6,8.4,5,.3,10.3.8,15.7,1.3,14.1,1.3,28.7,2.6,41.2.8,10.4-1.9,12.5-4.3,16.8-9,1.3-1.4,2.7-2.9,4.4-4.6,1.7-1.6,3.2-3.7,4.8-5.8,3-3.9,6-7.9,10.7-10.6,6.1-3.9,11-.9,15.4,1.7,1.4.8,2.9,1.7,4.7,2.6,2.3,1,5.6,3.1,9.4,5.6,4.4,2.9,9.5,6.3,13.2,7.7,5.5,2.1,21.8-6,24.9-12.5,2.9-6.1,4.1-9.1,3.8-14.1-.3-5.1-14.9-17.4-24.2-21.5-1.1-.6-3.2-.9-5-1.1-4.2-.6-8.9-1.3-11-5.2-1.2-2.3-1.1-4.9.2-7.9,4.1-8.4,18.5-22.5,28.6-29.5,4.1-3.2,9.5-4.5,14.2-5.7,3.2-.8,6.2-1.5,8.1-2.8,18.6-11.3,39-30.3,50.9-44.2,25.5-30.8,27-65,4.3-98.9l-.3-.5c-1.4-2.7-3-4.9-4.5-6.8-2.3-3-4.7-6.1-3.7-10,1-3.8,4.7-6,8.7-7.8,3.2-1.8,7.3-3.6,11.6-5.6,9.4-4.3,20.1-9.2,25.6-15.3,6.3-7.2,1.6-32.6-8.7-46.8l-.5-.9c-.5-1.2-2.7-3.3-4.4-5.1-4.3-4.3-11.4-11.5-5.6-18.2,8.7-8.9,20.6-16,32-22.8,6.3-3.7,12.2-7.2,17.5-10.9,7-4.9,10.7-10.5,10-15.2-.5-3.2-2.9-5.8-6.4-7-11-3.7-31.1-1.8-43.1-.7-2.9.3-5.5.5-7.5.6-4.6.1-18.4.5-19.9-8.1l-6.8-29c-2-7.1,11-25.7,13.6-29.4,2.7-3.5,5.8-7.3,9.2-11.5,12.2-14.9,30.5-37.5,30.8-48.8-.1-.2-1-1.3-1.5-1.5-9.5-.5-27.3,7.1-49.8,16.8-6.1,2.6-12.5,5.4-19.4,8.2-16.5,6.9-25.6,10.7-40.5-3.1-2-2.1-4-4.1-6.1-6.1-7.7-7.3-17.3-16.4-15.7-28.8l.2-.9c11.8-34.2,7.7-68.5-11-91.6-13.2-17.1-36.6-27.2-64.4-28-26.2-1.8-52.1-8-71.4-17.1-5.3-2.5-10.2-5.5-14.5-8.2-1.8-1.1-3.5-2.2-5.2-3.2-9.3-3.8-18.6-3-29.3-2.1-6.6.6-14,1.2-22.2.8-9.7-.1-21-.3-33-.5-58.1-1-137.5-2.3-165.3.6-3,.5-9.9,0-25.6-1.1-11.4-.8-30.6-2.2-33.8-1.3-4,1.7-6.7,4.5-9.5,7.5-3.1,3.2-6.2,6.5-11.1,8.4-19.6,8.3-43.7,11.7-64.7,14.2-42.8,5.2-64,15.3-78.1,37.3-13.5,20.8-13.5,40.3-9.3,65.1.4,3.2,1.1,6.3,1.7,9.3,2.5,11.8,5.4,25.2-6.9,36.6-18.9,21.5-29.9,26.5-57.6,13.4-4-1.5-8.5-4-13.3-6.6-10.9-5.9-23.3-12.6-31-8.4-5,2.5-11.3,9.4-9.9,13.7,3.3,8.7,10.7,17.2,17.9,25.4,4.5,5.1,9.2,10.4,12.8,15.8,1.1,1.5,2.2,3,3.3,4.5,6.4,8.7,12.4,16.9,10.4,29.6v.5c-.5,1.3-.7,3.2-1,5.1-1,6.8-2.4,16.1-10.3,18.8l-.8.2c-8,1-16.2.4-24.1-.2-7.9-.6-16.1-1.3-24.1-.2-7.8.9-26.5,7.5-28.7,10.7l-.4.7c-.8,1.1-1,2.2-.7,3.4,2.2,9.2,26.2,22.2,42.1,30.8ZM156,413.1c.7-5.1,7-6,19.8-6,10.2-.3,18.6.2,26.6.7,8.3.5,16.2.9,26.2.6,4.7,0,7.5-.7,8.9-2.1,2.2-2.3,1.9-7.9,1.6-14.5,0-1.7-.1-3.4-.2-5.2-.1-3.9.5-10.2,2.7-14.8,1.3-2.5,2.6-4.1,3.6-5.2.3-.4.8-1,.9-1.2v-.4s0-.3,0-.3c-.2-3.1-9.3-14.2-12.2-17.9l-1.5-1.9c-5.4-6.4-8.5-11.1-11.4-15.7-2.9-4.4-5.6-8.6-10.6-14.5l-1.1-1.3c-11.6-13.7-13-15.5-10.3-19.1,2.6-3.4,5.8-1.9,12.8,1.4,3.3,1.5,7.7,3.6,13.1,5.8,14.9,6.6,30.8,12.3,43.9,15.8h.4c3.2.9,6.2,1.6,12.7-3.4,14.3-11.2,39.8-34.3,44.6-41.7,0-1.8-2.1-4.6-4-7.1-1.8-2.4-3.7-4.8-4.8-7.5-7.8-16-7.3-51,1-70.8,5.6-13,17.3-24.1,33.9-32.2,18.7-8.9,38.8-10.6,53.6-4.7.4.1,1,.3,1.6.6,1.7.6,3.4,1.3,4.6,1.2.5-.2,1.3-1.3,1.8-2v-.2c6.1-10.5,25.7-14.5,45.2-17.7h.6c7.4-2.2,12.5-4.4,16.4-9.2l1.1-1.2c1.4-1.5,3.2-3.4,6.6-3.6,40.3.2,87,.1,136.4,0,47.8-.1,97.2-.2,146.9,0,2,0,3.7,0,5.2,0,10.5-.2,12.1,0,18,8.2,1,1.4,2.3,3.1,3.9,5.2,2.5,3.6,7.1,3.7,14.5,3.5,5.4-.1,11-.3,15.9,1.9l1,.6c3.2,2.6,8.5,4,13.6,5.4,3.9,1.1,8,2.2,11.4,3.9,6.3,1.9,13.8,1.5,21.1,1.1,3.8-.2,7.8-.4,11.6-.3,19.9-.3,37.7,9,50.2,26.1,15.4,20.9,20.2,50,12.4,74.2-.8,3.7-2.7,7.6-4.6,11.4-1.9,3.8-3.6,7.4-4.1,10.6.5,1.2,2.4,2.9,3.8,4.2,1.3,1.2,2.7,2.5,3.9,4,4.1,4.3,8.2,8.3,12.2,12.2,3.7,3.6,7.4,7.2,11.2,11.2,2.7,2.6,5.6,5.5,8.5,8.5,3.1,3.1,6.2,6.3,9.1,9l.7.6c.2.2.3.3.5.4,5.6-2,15-6.4,23.3-10.2,5.6-2.6,10.9-5,14.7-6.7,0,0,32-14.9,37.2-12.7l1.9.8.7,2.1c1.8,5.9-23.7,35-25.1,36.6-3.5,4.1-7.2,7.9-10.4,11.2-12.6,13.1-18,19.3-12.2,30,4.1,7.5,5.6,13.4,6.8,18.2,1.7,6.8,2.6,10.2,9.6,14.3,8.6,5,38.8,4.8,51.7,4.6,11.6-.1,13.5-.1,14.3,3.7.6,2.8.2,4.3-11.9,13-7,5-14.2,9.6-19.4,12.4-2.9,1.7-6.1,3.4-9.2,5-11.6,6-21.5,11.2-22.3,23.4-.8,5.8,2.5,8.2,10.2,12.6,2.1,1.2,4.2,2.4,6.2,3.8,11.8,9.2,18.7,32.5,12.7,42.3-3.8,5.8-9.4,7.8-14.5,9.5-1.6.6-3.3,1.1-4.9,1.9-11.4,4.1-26.5,8.8-37.9,11.9-3.6.8-12.5,2.7-13.4,4.6,0,0,0,1.5,3.4,5.2,25.8,14.5,40.8,33.3,43.4,54.4,2.9,23.2-9.6,48.5-35.9,73.2l-3.5,3.4c-8.4,8.3-18,17.6-27.5,21.5l-.5.2c-1.9.5-4.3.8-6.7,1.1-6.3.7-12.3,3.5-16.8,7.8-12.7,12.1-29.6,30.4-36.9,41.9-3.7,6-2,7.8.5,9.6,7.2,4.7,18,7.7,26.7,10.2,1.9.5,3.8,1.1,5.5,1.6,6.1,1.2,10,3.6,11.5,7.3.9,2.2,1.2,5.8-2.1,10.3-7.7,12.1-18.7,5.8-24,2.7-5.1-2.9-9.3-5.5-13.6-8.2-3-1.8-6-3.7-9.4-5.7-.9-.5-1.8-1-2.6-1.6-1.9-1.2-2.9-1.8-3.9-1.9-1.8,1.1-3.4,3-5.1,5-4.1,5-10.4,12.4-22.4,5.8-17.9-9-70-28.1-107.5-40.3-30.8-8.9-66.7-20.7-101.5-32.1-8.5-2.8-16.9-5.5-25.1-8.2-2.9-.7-6.8-1.8-11-3-12.4-3.6-29.2-8.4-38-5.6.4.4.9.7,1.6.9,13.5,4.5,27.3,11.1,40.7,17.4,5.2,2.5,10.3,4.9,15.2,7.1,25.9,12.5,56.2,19.8,85.5,26.8,26.5,6.4,54,13,78.7,23.5,9.5,4.2,19.7,7.3,29.5,10.2,9.4,2.8,19.1,5.7,28.1,9.6,6,3.2,5.7,6.8,5,8.7-2.8,7.6-31.1,8.8-48,8.8s-10.2-.1-11.9-.2h0c-6.8-.3-10.9-1.3-15.3-2.4-2.5-.6-5-1.2-8.2-1.8-7.2-1.3-15-1.6-22.5-1.9-5.2-.2-10.7-.4-15.9-.9-11.5-.9-21.1-3.1-30.4-5.2-5.8-1.3-11.8-2.7-18.3-3.7-18.8-3-44.6-5.1-67.5-5.6-9.6-.2-18-.2-27.6.6-4,.3-7.7,1.1-11.3,1.8-5.6,1.2-11.4,2.4-18.2,1.8-7.6-.4-16.8-2.5-25-4.4l-4.8-1.1c-1-.1-2.4-.4-3.7-.6-6.4-1.1-10.5-1.7-13.4,1-15,12.5-45.4,12.6-67.5,12.6h-5.6c-2.6-.1-5.3-.3-8.2-.4-22-1.1-55.1-2.7-67.3-16.8-2.4-2.5-9.3-2.3-13.7.6l-.4.2c-7.3,3.6-18.2.2-27.2-8.7-5.7-5.4-10-12.5-12.2-19.9l-.8-2.9c-1.2-4.6-1.9-6.9-4.6-10.4-13.7-16.1-29.5-30-43.3-38.2-.5,0-1.2.2-2.1.5-1.4.4-3.1.9-5.1.9-11.4-.6-19.1-8.8-25.9-16-1.6-1.7-3.2-3.4-4.7-4.9-23.1-20.4-32.8-61.7-23-98.1l.2-.5c4.1-10.5,15.7-22.7,27.5-29.1,1.7-1,3.7-1.8,5.6-2.6,3.1-1.3,6.2-2.6,8-4.5.5-1,.3-1.5.2-1.7-1.8-4.5-15.1-8.6-19.5-10l-.6-.2c-17.7-4.7-38.2-16.9-44-20.5-9.2-5.4-6-14.9-4.4-19.4l.3-.7c1.5-2.7,2.6-5.6,3.9-8.7,2.1-5.2,4.2-10.5,7.9-15,3.8-4.4,11.5-10.3,16.6-13.3,1.4-.9,2.5-2,2.9-3q1-2.3.1-4.5l-.6-1.5c-.5-.9-2.5-2.7-4.1-4-.6-.6-1.3-1.1-1.8-1.6-8.3-7.3-34.2-24.9-51.6-31-8.1-2.4-14.5-4.7-13.7-10Z"/>
      </g>
    </g>
  </g>
</svg>