<?xml version="1.0" encoding="UTF-8"?>
<svg xmlns="http://www.w3.org/2000/svg" version="1.1" viewBox="0 0 1280 1280">
  <defs>
    <style>
      .cls-1 {
        fill: #fff;
      }
    </style>
  </defs>
  <!-- Generator: Adobe Illustrator 28.6.0, SVG Export Plug-In . SVG Version: 1.2.0 Build 709)  -->
  <g>
    <g id="Layer_1">
      <g>
        <g>
          <path class="cls-1" d="M492.6,265c-13.1,2.4-13.1-.5-2.4,44.7,4.9,20.4,11.2,36.9,15.1,38.4,4.9,1.5,5.8,0,3.4-6.8-1.9-5.3-4.9-17-6.3-26.2-2.4-14.1-1.5-16,3.9-11.2,10.2,9.7,14.6,7.3,11.7-5.8-1.5-6.8-3.4-17.5-4.9-24.3s-4.4-11.7-6.3-11.7c-1.9.5-8.3,1.9-14.1,2.9Z"/>
          <path class="cls-1" d="M527.6,285.4c4.4,29.1,13.6,45.2,10.2,17.5-1.9-15.5-1.5-18,3.4-12.1,8.3,10.2,31.6,6.3,48.6-7.8,7.8-6.3,16-11.7,18.5-11.7s3.9-1.9,2.4-4.4-21.9-4.4-44.7-3.9l-41.8.5,3.4,21.9Z"/>
          <path class="cls-1" d="M682,265c-10.2,3.4,35.9,35.5,51.5,35.5s13.6,1.5,11.2,12.1c-1,6.8,0,12.1,2.4,12.1s16-43.2,16-55.9-69.5-7.8-81.1-3.9Z"/>
          <path class="cls-1" d="M778.2,268.4c-4.4,5.8-11.7,34.5-9.7,40.3.5,2.4,5.3,2.9,10.7,2.4,7.8-1.5,8.7,0,6.3,7.3-1.9,4.9-4.9,15.1-6.3,23.3-2.4,13.1-1.9,13.6,4.4,7.3,6.3-6.3,23.3-62.7,23.3-76.7s-23.8-10.2-28.7-3.9Z"/>
          <path class="cls-1" d="M623.8,274.7c-11.2,1.9-14.1,12.1-8.3,27.7,1.9,5.8,9.7,7.8,26.7,7.8s23.8,1.5,23.8,7.8-4.4,7.8-32.1,5.3c-31.1-2.4-31.6-1.9-22.8,7.3,4.9,5.3,7.8,15.5,7.3,24.3-1,8.3,1.5,17,4.9,19.4,11.7,6.8,38.9,3.9,55.9-6.3,17.5-10.7,23.8-9.7,18.9,2.9-4.4,11.7-32.1,21.9-45.2,16.5-7.8-2.9-13.1-1.9-18.5,3.9-4.4,3.9-6.3,8.7-4.9,10.2s5.3,0,8.3-2.9,7.3-4.4,12.1-.5c10.2,8.7,7.3,14.6-5.3,11.2-13.1-2.9-17.5,6.3-17.5,40.3v20.9h21.9c22.3,0,25.7-3.4,26.2-29.1,0-3.9,1.9-14.6,3.4-23.3,2.9-14.6,6.3-17.5,19.9-16,2.9.5,6.8-6.3,8.7-14.6,3.4-14.1,3.9-14.6,8.7-6.3,2.9,4.9,7.8,11.2,11.7,13.1,3.4,1.9,6.3,7.3,6.3,11.7,0,6.3-1.5,6.8-5.8,2.4s-8.7-5.8-12.1-5.8c-5.3,0-4.4,2.9,1.9,12.1,10.7,14.6,12.1,14.6,18.9,1,5.8-12.6,3.4-47.1-3.4-47.1s-4.4-5.3-4.4-11.7-3.4-12.6-9.7-14.1c-5.8-1.5-9.7-6.8-9.7-13.1,0-16-8.3-28.2-30.1-43.7-18.9-14.1-30.6-16-55.9-11.2ZM690.3,333.9c0,8.3-8.7,15.1-19.9,15.1s-5.3-11.7,1.5-18.5,18.5-6.8,18.5,3.4ZM651.4,356.3c0,3.9-4.4,7.3-9.7,7.3-9.7,0-12.6-5.3-6.3-11.2,5.8-6.3,16-3.4,16,3.9ZM635.4,451.9c-1,6.3-1.9,1.5-1.9-10.7s1-17,1.9-11.2c1,6.3,1,16,0,21.9ZM651.4,442.2c0,23.8-2.4,22.8-6.3-2.4-1.5-9.7-1-18,1.9-18s4.4,9.2,4.4,20.4ZM659.7,451.9c-1,6.3-1.9,1.5-1.9-10.7s1-17,1.9-11.2c1,6.3,1,16,0,21.9Z"/>
          <path class="cls-1" d="M441.6,288.8c-1.9,1.9,0,9.7,3.9,18,6.3,12.1,8.7,13.1,14.1,7.8,3.4-3.9,7.3-11.2,8.3-16.5,1-7.3-1.5-10.2-10.7-11.2-6.8-1-14.1,0-15.5,1.9Z"/>
          <path class="cls-1" d="M812.7,303.8c-5.3,17-4.9,19.4,5.3,26.7,15.1,11.7,18,10.7,18-5.3s2.4-16,4.9-17.5c6.3-3.9,6.3,9.7,0,31.1-5.3,18.5-2.9,24.8,5.3,16.5s22.3-49.5,23.8-58.8c0-.5-5.3-1-12.1-1s-12.1-2.4-12.1-4.9-6.3-4.9-13.6-4.9c-11.7,0-14.6,2.9-19.4,18Z"/>
          <path class="cls-1" d="M418.3,299.9c0,9.7,19.4,49.1,23.8,49.1s2.4-21.9-4.9-42.7c-3.9-10.2-18.9-15.5-18.9-6.3Z"/>
          <path class="cls-1" d="M361.5,306.2c-12.1,5.8-15.5,15.1-4.4,10.7,3.9-1.5,11.2-.5,16,2.4,7.3,4.4,6.3,4.9-7.3,5.3h-15.5l19.4,17.5c16.5,15.1,20.4,16.5,27.2,11.2,6.3-5.3,6.8-4.4,4.4,8.3q-2.9,13.6,4.4,4.9c10.2-12.6,9.7-38.4-.5-50.5-10.7-12.6-29.6-17-43.7-9.7Z"/>
          <path class="cls-1" d="M896.2,305.3c-24.8,10.2-20.4,21.4,21.4,53.9,28.2,22.3,32.5,24.3,37.4,17,7.3-9.7,14.1-10.2,10.2-.5-1.5,3.9-1,7.3,1.5,7.3,9.2,0,10.2-25.3,1.9-42.7-14.6-29.6-48.1-45.7-72.4-35ZM932.7,327.6c7.3,5.3,9.2,9.7,6.3,12.6-6.3,6.3-25.3-3.9-25.3-13.1s4.9-9.2,18.9.5ZM962.3,351.4c0,3.9-1.9,7.3-4.4,7.3-6.3,0-10.7-7.8-6.8-11.7s11.2-2.9,11.2,4.4Z"/>
          <path class="cls-1" d="M450.9,384.9c-10.2,15.1-31.1,77.2-40.3,119.5-15.5,70.9-25.7,125.3-28.7,154-1.9,17-3.9,30.6-4.9,30.6s-14.6-3.4-30.1-6.8c-27.7-7.3-38.4-8.7-87.4-15.5-30.1-3.9-36.4,5.3-7.3,10.7,9.7,1.5,24.8,4.9,32.5,7.3,12.1,3.4,11.2,3.9-8.7,2.4-34-2.4-26.2,7.8,11.7,15.1,17,3.4,48.6,9.2,69.9,12.6,21.4,3.4,41.8,7.8,45.2,9.7,6.3,4.4,7.8-.5,15.1-50,20.4-132.6,43.7-234.1,63.6-273.9,5.3-10.7,8.7-19.9,7.8-20.9s-7.8-2.4-15.5-4.4c-12.1-2.4-16-.5-22.8,9.7ZM447.5,448.1c0,7.8-8.7,15.1-13.1,10.7s2.4-17.5,8.3-17.5,4.9,2.9,4.9,6.8ZM437.7,501.5c0,3.9-1.9,8.3-4.4,10.2-5.8,3.4-11.7-5.8-7.8-12.1,4.4-7.3,12.1-5.8,12.1,1.9ZM423.2,553c0,5.3-1.9,9.7-4.9,9.7s-4.9-4.4-4.9-9.7,2.4-9.7,4.9-9.7,4.9,4.4,4.9,9.7ZM409.1,621.9c-6.8,54.9-10.7,83.5-12.1,85s-5.8,0-11.7-1.5c-8.3-2.4-9.2-3.9-3.9-9.2,3.4-3.4,10.2-31.1,15.1-61.7,4.4-30.1,9.7-56.8,10.7-58.8,6.3-10.7,6.8,5.3,1.9,46.1ZM337.7,693.3c3.4,5.3-6.8,9.7-15.1,6.3-3.4-1-6.3-3.9-6.3-6.3,0-5.8,18-5.8,21.4,0Z"/>
          <path class="cls-1" d="M794.7,377.2c-1,1,2.4,9.2,7.8,18,22.8,38.4,51.5,153,70.4,278.3,6.8,46.6,9.2,54.4,16,52,9.2-3.9,120-23.3,193.8-34.5,21.4-3.4,23.8-6.3,15.5-21.9-5.8-10.7-19.4-11.7-58.8-4.4-14.6,2.4-46.1,8.3-70.4,12.1-24.3,3.9-47.1,8.3-51,9.7-5.8,1.9-8.7-9.2-16-54.4-16-103-39.3-193.8-60.2-232.2-11.7-21.4-15.1-24.3-29.1-24.3-8.7-.5-17,.5-18,1.5ZM850.6,453.9c0,6.8-5.8,9.2-11.2,3.9-4.4-4.4,1.9-17,6.8-13.6,2.4,1.5,4.4,5.8,4.4,9.7ZM874.9,550.1c0,3.9-1.9,8.3-4.4,10.2-5.8,3.4-11.7-5.8-7.8-12.1,4.4-7.3,12.1-5.8,12.1,1.9ZM890.9,641.4c1.5,14.1,4.4,33,6.3,41.3,1.9,10.2,1.5,16-1.9,16s-6.8-10.2-8.3-23.3c-1.9-12.6-4.9-29.1-7.3-36.4-4.4-14.1-1.5-29.1,4.9-25.3,1.9,1,4.9,13.6,6.3,27.7ZM1049.7,681.7c0,3.9-1.9,7.3-4.4,7.3-6.3,0-10.7-7.8-6.8-11.7s11.2-2.9,11.2,4.4ZM971,694.3c-1,2.9-3.9,4.9-6.3,4.9s-5.3-1.9-6.3-4.9,1.9-5.3,6.3-5.3,7.3,2.4,6.3,5.3Z"/>
          <path class="cls-1" d="M396.5,404.8c-2.4,1-10.7,2.9-17.5,4.4-13.1,2.9-53.9,33.5-57.3,43.2-1,2.9,3.9,3.9,13.6,1.9,23.8-4.9,13.1,5.3-12.1,11.7-16,4.4-23.8,9.2-29.1,19.4-3.9,7.8-10.2,14.1-13.6,14.1s-8.3,3.4-9.7,7.8c-4.4,11.2-3.9,11.7,6.8,11.7s12.1,5.8,4.9,19.9c-6.3,11.7-22.3,12.1-28.7,1-6.3-11.7-12.1-4.4-5.8,7.3s37.4,16.5,44.7,7.8c2.9-3.4,6.3-18.5,7.8-33.5,2.4-22.8,4.9-28.7,15.5-35,34.5-21.4,42.7-28.2,42.3-35-1-12.1,23.3-10.2,25.3,1.9,1.9,12.6-20.4,71.9-27.7,74.3-8.3,2.9-6.8-26.2,2.4-43.2,3.9-8.3,6.3-16,5.3-17-3.9-3.9-32.5,22.8-29.6,27.7,1.5,2.4-1.5,4.4-5.8,4.4-7.8,0-7.8.5,1,7.3s8.7,6.8-2.9,7.3q-11.7.5-2.9,7.3c8.7,6.8,8.7,7.3.5,10.7-7.8,2.4-5.8,4.9,10.2,11.7l18.9,8.7h-18c-9.7.5-18.9,1.9-19.9,3.9-1,2.4,1.5,12.1,6.3,22.3l8.3,18.5,15.1-23.3c15.1-22.8,15.5-22.8,15.5-8.7,0,24.3,7.8,8.3,33.5-72.4,14.1-42.7,27.7-80.6,30.6-84,3.9-4.9,1.9-6.3-8.7-5.8-7.8,0-16,1-18.9,1.9ZM391.1,427.7c-3.9,13.6-5.8,16-9.7,12.1-4.4-3.9,2.9-22.8,8.3-22.8s3.4,4.9,1.5,10.7Z"/>
          <path class="cls-1" d="M862.2,410.2c1.9,5.3,7.8,23.3,13.1,40.8,5.3,17.5,13.6,44.7,18.5,60.7,9.7,30.1,19.4,66.1,22.8,82.1,1.9,10.7,6.8,17,6.8,8.7s2.4-5.8,5.3-5.8,3.9,3.9,2.4,8.3c-1.5,4.9-.5,12.1,1.9,16,3.9,5.8,4.9,5.8,5.3-2.4.5-5.3.5-13.6,0-18.5-.5-4.4,1.5-8.3,3.9-8.3s5.3,2.4,5.3,5.8,3.9,18.5,8.3,34c8.7,29.6,17,35,29.1,19.4,5.8-7.3,6.3-7.3,5.3,0-1.9,9.7.5,10.7,25.3,6.3,23.3-3.9,26.7-8.3,18-22.8-3.9-6.3-8.7-17.5-10.2-24.8-4.4-18-12.6-12.1-12.6,9.2s-1.9,16.5-4.9,16.5-4.9-10.2-4.9-23.3-2.4-26.2-4.9-30.1c-3.4-5.8-6.3-5.3-16.5,4.4-16,15.1-20.4,10.7-10.2-8.7,10.2-19.9,6.3-24.8-19.9-24.8s-24.8-7.3,0-11.7c12.6-2.4,16.5-5.3,16-12.6-.5-5.8-4.4-9.7-9.2-9.7-11.2,0-11.2-4.4,0-12.6,7.3-5.8,6.8-6.3-6.3-6.8-7.8-.5-11.7-1.9-8.3-3.4,2.9-1,5.8-3.9,5.8-6.3,0-5.3-29.1-26.2-32.1-22.8-1.5,1.5,1.9,11.2,7.3,22.3,10.7,20.9,13.1,41.8,5.3,46.6-6.3,3.9-16-17.5-26.7-57.8-8.3-32.5-8.3-33.5,0-40.3,12.6-8.7,15.5-8.3,28.2,5.3,5.8,5.8,19.4,14.1,30.1,17.5,10.7,3.4,24.3,10.2,30.1,15.5,15.5,14.1,24.8,5.8,10.2-9.2-30.1-32.5-74.8-55.9-117.5-62.2-22.3-3.4-23.8-2.9-20.4,5.3Z"/>
          <path class="cls-1" d="M556.7,412.6c-1.9,2.9-2.4,6.3-1,7.8,3.4,3.4,13.1-2.9,13.1-8.7s-8.3-5.8-12.1,1Z"/>
          <path class="cls-1" d="M765.1,418c6.8,30.6-14.1,50-70.4,67-38.9,11.7-59.3,12.1-98.1,1.9-53.9-13.6-76.3-30.1-76.3-54.9s-9.2-12.6-15.1,2.4c-3.4,9.7-2.9,15.5,2.9,24.3,17,26.2,91.8,55.4,140.8,55.4s97.6-21.9,122.9-51c18.9-20.9,18.9-27.2,2.9-44.7l-12.1-13.6,2.4,13.1Z"/>
          <path class="cls-1" d="M707.3,422.3c5.8,18.9,13.1,23.3,11.2,7.3-1-7.8-4.4-15.1-8.3-16.5-4.9-1.5-5.3,1-2.9,9.2Z"/>
          <path class="cls-1" d="M570.3,424.3c-3.9,10.7,2.9,16,8.3,7.3,6.3-9.7,5.8-14.6,0-14.6s-6.3,3.4-8.3,7.3Z"/>
          <path class="cls-1" d="M690.8,428.6c-3.9,4.4-4.9,11.2-2.9,16,3.4,8.3,3.9,7.8,7.3-1,2.4-5.3,4.4-6.8,4.4-3.9.5,6.8,10.2,8.7,10.2,2.4s-2.9-7.8-6.3-12.6c-5.8-7.8-6.8-7.8-12.6-1Z"/>
          <path class="cls-1" d="M583.4,434c0,4.4,2.9,5.8,7.3,4.4,5.3-2.4,6.3-1,4.4,4.9-1.5,4.4-.5,7.8,1.9,7.8,8.7,0,11.7-9.7,5.8-17-7.8-9.2-19.4-9.2-19.4,0Z"/>
          <path class="cls-1" d="M921,455.3c-1.5,2.9,0,5.3,3.4,5.8,3.4,0,18.5,8.3,33,18,25.7,17.5,26.7,18.9,27.2,41.3,1,29.6,11.7,42.7,31.6,38.9,10.2-1.9,14.1-1,14.6,3.9,1,18.5,4.4,34,9.2,41.8,4.4,6.8,4.9,4.4,2.9-13.1l-2.4-21.9,5.8,19.9c3.4,12.1,8.3,18.9,12.1,18,2.9-1.5,5.8-4.4,5.8-6.8s-1.9-3.9-3.9-2.4c-2.4,1.5-3.4-4.4-1.9-13.1,1.5-12.1.5-14.1-3.4-8.3-2.9,3.9-5.3,4.9-5.3,1.9s2.9-7.8,5.8-10.7c4.9-4.9,3.9-6.8-4.9-8.7-11.7-3.4-14.1-11.2-5.3-19.9,3.9-3.9,1.5-10.7-8.3-25.7-11.2-16.5-15.5-19.9-25.3-18-8.3,1.5-15.5-1-22.8-9.2-5.8-6.3-21.4-16-34.5-22.3-13.1-5.8-25.3-11.7-27.2-12.6-1.5-.5-4.4,1-6.3,3.4ZM1023,524.8c15.1,6.8,15.5,12.6,1.5,18-8.3,3.4-13.6,1.9-20.4-4.4-4.9-4.9-7.3-11.2-5.8-14.1,4.4-6.8,9.2-6.8,24.8.5Z"/>
          <path class="cls-1" d="M204.6,469.9c0,3.4,36.4,29.6,40.8,29.6s2.9-2.9,2.9-6.3-9.7-10.2-21.9-16c-12.1-5.3-21.9-8.7-21.9-7.3Z"/>
          <path class="cls-1" d="M1057,476.2c-24.3,12.6-24.8,12.6-18.9,18.5,3.4,3.4,11.7-.5,25.3-10.2,29.6-21.9,26.7-25.7-6.3-8.3Z"/>
          <path class="cls-1" d="M779.2,487.4c-6.3,10.7-66.1,35.9-106.4,44.2-34.5,7.3-38.4,7.3-79.7-2.4-23.8-5.3-51.5-13.1-61.2-17.5-10.2-3.9-19.4-6.3-20.9-4.9-4.9,4.9,25.7,26.2,45.7,32.1,52.9,15.1,51.5,14.1,46.1,23.8-7.8,15.1-5.8,18.9,16,29.1,19.9,9.2,20.4,10.2,21.9,35,.5,14.1,2.4,29.6,3.9,34,4.9,15.5-7.8,9.2-16-8.3-9.7-20.4-14.6-21.4-22.3-3.9-2.9,7.8-7.8,15.1-10.2,16.5-2.4,1.9-2.9,6.8-1.5,10.7,1.5,4.4-.5,10.2-4.4,13.1-5.3,4.9-6.8,4.4-6.8-1.9s-2.9-7.8-6.8-7.8-5.8,3.9-3.9,12.1c2.4,14.6.5,14.1,20.4,3.9,40.3-19.9,88.4-12.6,128.2,20.4l26.2,20.9,7.8-19.4c3.9-11.2,6.3-21.9,4.9-24.3-1.5-2.4,1-3.9,5.3-2.9,5.8,1,11.7-6.8,21.9-28.2l13.6-30.1-19.4-2.4c-20.9-2.9-71.9-25.7-71.9-32.5s9.7,0,21.4,5.3c30.1,13.1,62.7,17,69.9,8.3,4.9-6.3-.5-8.3-34.5-13.1-60.2-9.2-63.1-15.5-5.8-12.1,42.7,1.9,47.1,1.5,37.4-4.4l-11.2-6.3,12.1-5.8c7.3-2.9,12.6-8.7,12.6-13.1,0-9.2,1-9.2-26.2,2.9-12.6,5.3-29.6,9.2-38.4,8.3l-15.5-1.9,14.6-3.9c41.3-10.7,60.7-24.8,60.7-43.7s-4.9-3.9-20.4,6.8c-23.8,16.5-69.9,34-89.9,34s-11.7,1.5-7.3,5.8c11.7,11.7,6.8,28.2-11.7,38.9-12.1,7.3-15.5,11.7-11.7,15.5s7.8,3.4,15.1-1c8.7-5.8,12.1-3.9,32.1,18.5,11.7,13.1,24.8,24.3,28.7,24.3,11.7,0,7.8-6.8-17.5-28.2-13.6-11.7-24.3-23.3-24.3-26.2s4.9-1,11.2,4.9c5.8,5.3,22.8,16.5,37.9,24.3l27.2,14.1-21.4,10.7c-30.6,15.1-56.3,13.6-69-3.4-17.5-22.8-20.4-25.7-25.3-22.8-2.4,1.9-4.4,8.3-4.4,15.1s-2.4,11.7-4.9,11.7c-4.9,0-4.4-9.7,2.9-50,1.5-7.3,5.8-13.1,9.2-13.1,11.2,0,13.6-9.7,4.4-19.9-10.2-11.2-34.5-12.1-49.5-1.5-9.7,6.8-10.7,6.8-10.7-.5s7.8-11.2,17.5-15.1c20.4-8.7,40.3-3.4,53.9,14.6,7.3,10.2,7.3,7.3-1.5-13.6-2.9-6.8,4.4-9.7,49.1-20.4,18.9-4.4,47.6-18.9,54.4-27.2,7.3-9.2,12.1-33,6.8-33s-6.8,3.4-8.7,7.3Z"/>
          <path class="cls-1" d="M476.6,516.1c0,13.6,28.2,35.9,53.4,41.8,13.1,3.4,24.3,7.8,24.3,9.7,0,5.8-31.6.5-59.7-10.2-21.4-7.8-23.3-7.8-21.9-.5,1,4.4,8.3,10.2,16,12.6,27.7,8.3,29.1,9.7,8.7,11.7-11.7,1-20.9,3.9-20.9,6.3s7.3,4.4,18.5,2.4c9.7-1.5,31.1-3.9,47.1-5.3,43.7-4.9,27.7,5.3-20.9,13.1-38.4,5.8-50.5,14.6-24.3,17.5,10.7,1.5,28.7-4.4,69-20.9,21.4-9.2.5,8.3-26.7,21.9-27.7,14.1-32.5,18.9-25.3,25.7,3.4,3.9,33-13.1,50.5-29.1,22.3-20.4,19.9-4.9-3.4,18.5-12.1,12.6-19.9,23.8-17.5,25.7,2.9,1.5,14.6-7.8,26.2-20.4,17-18.9,22.8-22.8,30.6-19.9,14.1,5.3,21.9,5.3,21.9-.5s-5.3-7.3-11.7-9.7c-16.5-6.3-27.7-23.8-22.3-34.5q6.8-12.6-15.1-16c-23.8-3.9-66.1-22.8-80.6-36.9-12.6-11.7-16-12.1-16-2.9Z"/>
          <path class="cls-1" d="M246.4,571.9c-1.9,2.4-1,9.7,1.5,16,4.4,10.2,4.9,10.2,4.9-4.9.5-15.5-1.5-18.9-6.3-11.2Z"/>
          <path class="cls-1" d="M297.9,589.4c2.9,6.8,7.3,12.1,9.7,12.1,5.3,0,4.9-3.4-1-15.1-7.8-13.6-15.5-11.2-8.7,2.9Z"/>
          <path class="cls-1" d="M185.2,587c17.5,5.8,35,5.8,31.6,0-1.5-2.9-12.1-4.9-23.3-4.4-17.5.5-18.5,1-8.3,4.4Z"/>
          <path class="cls-1" d="M1071.6,587.5c-2.4,3.4,3.9,3.9,19.9,1.5,31.1-4.4,33-6.8,5.3-6.8s-23.8,2.4-25.3,5.3Z"/>
          <path class="cls-1" d="M227,594.7c-4.4,10.7,1.5,15.5,6.8,6.8,5.8-9.2,5.8-14.6.5-14.6s-5.8,3.4-7.3,7.8Z"/>
          <path class="cls-1" d="M581.5,637.5c-8.3,11.2-10.7,18-7.3,20.4,5.8,3.4,28.2-20.9,28.7-31.1,0-10.7-8.3-6.3-21.4,10.7Z"/>
          <path class="cls-1" d="M680.6,623.4c0,4.9,21.9,36.4,25.7,36.4,6.3,0,3.4-9.7-7.3-24.3-9.2-13.1-18.5-18.9-18.5-12.1Z"/>
          <path class="cls-1" d="M438.2,706.9c-.5,7.3-1.5,18.9-2.4,25.7s-1.9,14.6-2.4,18c-.5,3.9-7.3,5.8-18.5,4.9-14.6-1-18.5,1-19.9,8.3-1,5.3,1.9,12.1,6.3,15.5,5.8,4.4,7.3,10.2,5.8,17.5-1.9,6.3-1,14.6,1.9,18.5,3.9,6.3,5.3,5.8,11.7-1.9,3.9-4.9,7.8-11.7,8.7-14.1,1-3.4,9.2-2.9,24.8,1.5,20.4,5.8,23.8,5.3,31.1-1.9,5.8-5.8,6.8-9.2,2.9-11.7-5.8-3.9-34-65.6-36.9-80.6-2.4-14.6-12.1-14.6-13.1.5ZM453.8,769.1c3.4,8.7-2.9,13.1-13.1,9.2-6.3-2.4-6.8-4.4-2.4-9.7,7.3-8.7,12.1-8.7,15.5.5Z"/>
          <path class="cls-1" d="M836,705c0,5.8-4.4,18.9-9.7,29.1-5.3,9.7-9.7,20.9-9.7,24.8s-4.4,11.7-9.2,18c-4.9,6.8-10.2,18.5-10.7,26.2-1.9,13.6-1,14.6,12.1,13.1l14.1-1.9-2.4,24.8c-2.4,23.8-1.9,25.3,12.1,32.1,8.3,3.9,15.5,7.3,16.5,7.3s9.2-16,18.5-35c12.6-25.7,16.5-38.9,14.6-48.6-2.4-9.7-1-14.6,4.4-16.5,8.3-3.4,9.7-10.7,3.9-19.9-2.9-4.4-8.3-4.9-19.4-1.9-12.1,3.9-15.5,3.4-16-2.4-.5-3.9-1-8.3-1.5-10.7-1-1.9-2.9-13.6-4.9-26.7-3.9-23.3-12.6-31.6-12.6-11.7ZM852.5,771c10.7,11.7,11.2,40.3,1,56.3l-8.3,12.6-12.1-23.3c-11.7-21.9-12.1-23.8-4.9-38.9,8.7-18.5,12.6-19.4,24.3-6.8Z"/>
          <path class="cls-1" d="M551.9,718.1c-4.9,5.3-6.8,9.7-4.4,9.7,5.8-.5,21.4-12.1,21.4-16.5s-8.3-2.9-17,6.8Z"/>
          <path class="cls-1" d="M632,733.2c0,2.4,2.4,4.4,4.9,4.4,11.2,0,3.9,9.2-9.7,12.1-23.8,5.3-16.5,12.1,13.6,12.1s37.4,2.4,49.1,5.3c11.7,2.4,22.3,3.4,23.8,1.9,3.9-3.9-15.1-22.3-28.2-27.7-19.9-7.8-53.4-12.6-53.4-8.3Z"/>
          <path class="cls-1" d="M1006,751.6c0,2.4,2.9,5.8,6.3,7.3,2.9,1.5-3.4,1-14.6-.5-26.2-3.4-26.2,2.9,0,15.5,23.8,11.7,39.3,35,38.4,59.3-.5,11.2,1.5,16,5.3,14.6,6.8-1.9,7.3-39.3,1-53.9-2.9-6.8-2.4-8.7,2.9-6.8,3.4,1,8.7,9.2,11.2,17.5,5.8,20.4,10.7,19.4,15.1-1.9,2.4-14.6,1-19.9-8.3-29.6-18.9-20.4-57.3-34.5-57.3-21.4Z"/>
          <path class="cls-1" d="M267.7,779.3c-19.4,17.5-33,48.6-24.8,56.8,1.9,1.9,6.3-5.8,9.7-17.5,4.9-20.4,27.7-47.1,39.8-47.1s4.4-2.4,4.4-4.9c0-9.2-9.7-4.9-29.1,12.6Z"/>
          <path class="cls-1" d="M636.9,780.8c0,2.4-4.4,6.3-9.7,7.8-19.4,6.3-8.7,11.2,28.2,13.1,20.4,1.5,41.3,3.9,46.1,5.8,6.3,2.9,8.3,1.5,8.3-6.3s-4.9-12.6-17-18c-18.5-7.8-55.9-9.2-55.9-2.4Z"/>
          <path class="cls-1" d="M313.9,794.4c-19.9,10.2-36.9,26.2-33.5,31.6,1.9,2.4,7.8,0,13.6-5.3,19.4-18.5,55.4-25.3,78.2-14.6,6.8,2.9,2.4,3.4-14.6,1.5-17-1.5-27.2-.5-33.5,4.4-9.2,6.8-9.2,7.3,1,10.2,11.2,3.9,13.6,10.2,5.8,15.1-2.9,1.9-1.9,5.8,2.4,10.2,3.9,4.4,7.3,10.7,7.3,14.6s3.4,6.8,7.3,6.8,8.7,3.4,11.2,7.8c3.9,6.8,6.8,7.3,21.9,1.5,15.1-5.3,17.5-8.3,20.4-27.2s-3.9-40.3-28.2-54.9c-18.5-11.7-39.3-12.1-59.3-1.5ZM379,834.2c3.4,6.3,2.9,11.2-1.5,17.5-5.8,8.3-6.8,7.8-16.5-2.9-5.8-5.8-10.7-14.1-10.7-17.5,0-9.7,23.3-7.8,28.7,2.9Z"/>
          <path class="cls-1" d="M920,794.4c-11.7,3.9-20.9,9.2-20.9,12.1s3.9,3.4,8.7,1.5c16.5-6.8,48.1-8.3,58.8-2.4,15.5,7.8,10.7,9.7-11.2,4.9-17.5-3.9-20.4-2.9-31.6,9.2-6.8,7.8-17.5,22.3-23.8,33.5l-10.7,19.9,10.7,3.4c6.3,1.5,17,7.3,24.3,12.6l13.6,9.2,25.3-19.4c14.1-10.7,28.7-23.8,32.1-29.1,3.4-5.8,9.2-10.2,13.1-10.2,18.5,0-5.8-31.6-33.5-44.2-23.3-10.7-28.2-10.7-54.9-1ZM980.7,833.2c-1.9,11.7-41.3,40.3-50,37.4-10.2-3.9-9.2-18,2.9-33,7.8-9.7,14.1-12.6,29.1-12.6s19.4,1.5,18,8.3Z"/>
          <path class="cls-1" d="M479,830.3c-19.9,34-32.5,63.1-29.6,66.5,4.4,3.9,57.8,20.4,60.2,18.5,4.9-4.9-4.9-11.7-25.7-17.5-12.1-3.4-21.9-6.8-21.9-8.3,0-6.3,17.5-35,28.2-46.1,11.7-12.6,12.6-13.1,27.2-5.3,8.3,4.4,51,20.4,95.2,35.9,44.2,15.5,102,35.9,128.2,45.2,26.7,9.7,49.1,16.5,50.5,15.1,3.9-3.9-3.4-17-10.2-17s-41.8-15.5-85.5-34c-43.2-18.9-81.1-34-84-34s-28.2-11.2-55.9-24.3c-27.7-13.6-52.5-24.3-54.9-24.3s-12.1,13.1-21.9,29.6Z"/>
          <path class="cls-1" d="M430,822.5c-3.4,9.2-6.8,18.9-6.8,21.9,0,9.7,10.2,4.9,14.6-7.3,2.4-6.8,7.3-12.1,10.2-12.1s4.4,3.4,2.4,7.3c-3.4,9.7,3.9,9.2,12.1-.5,5.3-6.8,4.9-9.2-4.9-17-15.5-12.6-19.4-11.7-27.7,7.8Z"/>
          <path class="cls-1" d="M581,820.1c-4.9,7.8,1.9,12.6,20.9,16,11.2,2.4,15.5,1.5,15.5-3.4s-3.9-7.8-8.3-9.2c-4.9-1-12.1-3.9-16.5-5.8-4.9-1.5-9.7-.5-11.7,2.4Z"/>
          <path class="cls-1" d="M644.2,820.6c-1.9,2.9-2.4,5.8-1.9,6.3,4.9,3.9,62.7,7.3,62.7,3.4,0-11.7-54.4-20.9-60.7-9.7Z"/>
          <path class="cls-1" d="M312.9,837.1c-4.4,12.1,1.9,14.1,8.3,2.9,3.4-7.3,3.4-10.2,0-10.2s-6.3,3.4-8.3,7.3Z"/>
          <path class="cls-1" d="M512.5,861.9c1.5,4.4,2.9,8.7,2.9,9.7,0,1.5,2.4,1,4.9-.5,7.8-4.9,5.8-17-2.9-17s-6.8,2.4-4.9,7.8Z"/>
          <path class="cls-1" d="M569.8,876.4c.5,4.4,4.4,9.2,7.8,10.7,4.4,1.5,6.3-1,4.9-6.8-.5-4.4-4.4-9.2-7.8-10.7-4.4-1.5-6.3,1-4.9,6.8Z"/>
          <path class="cls-1" d="M388.2,888.1c-20.4,10.7-26.7,18.9-19.4,23.8,3.4,1.9,3.9,5.8,1,10.2-6.3,9.7-6.3,29.1,0,29.1s4.9-3.4,4.9-7.8c0-13.6,18.9-35,36.4-41.3,10.7-3.9,17-9.7,17-15.1,0-11.7-16.5-11.2-39.8,1Z"/>
          <path class="cls-1" d="M804.4,883.2c-1.9,3.4,1,10.7,6.8,16.5,9.2,8.7,11.2,9.2,15.1,2.9,2.9-3.9,4.4-10.7,3.4-14.6-1.5-8.7-20.4-12.6-25.3-4.9Z"/>
          <path class="cls-1" d="M859.3,883.7c-13.1,7.3-10.7,12.6,7.8,16,22.3,4.4,39.8,18.9,47.1,39.3,7.8,21.4,12.1,21.4,15.5,1,2.9-21.4-7.8-40.3-30.6-52-21.4-10.7-27.7-11.7-39.8-4.4Z"/>
          <path class="cls-1" d="M764.6,890.5c-1.5,4.4,1,11.7,5.3,16,7.3,7.3,8.7,7.3,12.6,1,6.8-10.7,5.8-13.6-4.9-19.4-7.8-4.4-10.7-3.9-13.1,2.4Z"/>
          <path class="cls-1" d="M520.3,893c0,2.4,2.9,4.9,6.3,4.9s30.1,9.7,59.3,21.9c55.4,22.3,65.6,25.3,65.6,17s-2.9-4.9-6.3-4.9-30.1-9.7-59.3-21.9c-55.4-22.3-65.6-25.3-65.6-17Z"/>
          <path class="cls-1" d="M517.9,910.9c8.3,7.8,75.3,32.5,78.7,29.1,1.5-1.9-9.2-8.7-23.8-15.5-28.2-12.6-63.1-21.9-54.9-13.6Z"/>
          <path class="cls-1" d="M419.3,929.9c-10.7,7.3-14.6,21.4-6.3,21.4s6.8-3.4,10.2-7.3,8.7-7.3,11.7-7.3,1.5,2.4-2.9,5.3c-15.1,8.7-9.2,18,18.9,31.1,26.2,11.7,28.2,12.1,34,4.4,9.2-12.6,7.8-20.4-4.4-26.7-6.3-3.4-17.5-11.2-24.8-17-16.5-13.6-21.9-14.1-36.4-3.9Z"/>
          <path class="cls-1" d="M832.6,927c-17,6.8-13.6,11.2,16.5,22.8,28.2,10.7,35.5,10.7,35.5-.5,0-16.5-32.5-30.1-52-22.3Z"/>
          <path class="cls-1" d="M539.7,949.3c-6.3,16-6.3,16.5,2.4,16.5s7.3-2.9,7.3-6.8,1.5-10.2,2.9-14.6.5-7.8-2.4-7.8-7.8,5.8-10.2,12.6Z"/>
          <path class="cls-1" d="M563.5,951.2c-.5,5.3-1,12.1-1.5,15.5-.5,2.9,2.4,6.3,5.8,7.3,3.9,1.5,5.8-3.4,5.8-15.1,0-18-9.2-24.8-10.2-7.8Z"/>
          <path class="cls-1" d="M612.6,945.4c0,4.9,76.3,29.1,104.4,33,30.6,3.9,11.2-5.3-41.3-19.9-25.3-6.8-50-13.6-54.4-15.1-4.9-1.5-8.7-.5-8.7,1.9Z"/>
          <path class="cls-1" d="M496,970.7c0,5.3,2.4,9.7,4.9,9.7s4.9-4.4,4.9-9.7-1.9-9.7-4.9-9.7-4.9,4.4-4.9,9.7Z"/>
          <path class="cls-1" d="M755.9,979.4c5.3,5.3,69.9,17.5,73.8,13.6,3.4-2.9-26.7-11.7-54.4-15.5-16-1.9-22.8-1.5-19.4,1.9Z"/>
        </g>
        <path class="cls-1" d="M1142.3,600.4c6.9-4.1,13.4-7.9,19.1-12,7.7-5.4,11.6-11.4,10.9-16.6-.5-3.5-3.1-6.3-7-7.6-12-4-34-2-47.2-.8-3.2.3-6,.6-8.2.7-5.1.1-20.1.6-21.8-8.9l-7.4-31.7c-2.2-7.8,12-28.1,14.9-32.1,2.9-3.8,6.4-8,10.1-12.6,13.3-16.3,33.4-41,33.6-53.3-.1-.2-1.1-1.4-1.7-1.6-10.3-.5-29.8,7.7-54.5,18.3-6.6,2.8-13.7,5.9-21.2,9-18.1,7.5-28,11.7-44.3-3.4-2.1-2.3-4.3-4.4-6.7-6.7-8.4-8-18.9-18-17.1-31.5l.2-1c12.9-37.4,8.4-74.9-12-100.1-14.4-18.6-40-29.8-70.4-30.6-28.6-1.9-57-8.8-78-18.7-5.8-2.7-11.1-6.1-15.8-9-2-1.2-3.9-2.4-5.6-3.5-10.2-4.1-20.3-3.2-32-2.3-7.2.6-15.3,1.3-24.3.8-10.6-.1-22.9-.4-36.1-.6-63.5-1.1-150.4-2.5-180.7.7-3.3.6-10.9,0-28-1.2-12.5-.9-33.4-2.5-36.9-1.4-4.3,1.9-7.3,4.9-10.4,8.2-3.3,3.5-6.8,7.2-12.1,9.2-21.5,9.1-47.8,12.8-70.7,15.5-46.8,5.7-69.9,16.7-85.4,40.8-14.7,22.7-14.8,44.1-10.2,71.1.5,3.5,1.2,6.9,1.9,10.2,2.7,12.9,5.9,27.6-7.6,40-20.7,23.5-32.7,28.9-62.9,14.7-4.3-1.7-9.3-4.4-14.5-7.2-11.9-6.5-25.4-13.8-33.9-9.2-5.4,2.7-12.4,10.3-10.8,15,3.6,9.5,11.7,18.8,19.6,27.7,4.9,5.6,10.1,11.4,14,17.3,1.2,1.7,2.4,3.3,3.6,4.9,7,9.5,13.6,18.5,11.3,32.4v.5c-.5,1.4-.8,3.5-1.1,5.6-1.1,7.4-2.6,17.6-11.3,20.5l-.9.2c-8.8,1.1-17.7.4-26.3-.3-8.7-.7-17.6-1.4-26.3-.2-8.5.9-28.9,8.2-31.4,11.7l-.4.7c-.8,1.2-1.1,2.4-.7,3.7,2.4,10,28.6,24.3,46,33.7,12.9,7,23,12.5,27.4,17.2l.6.9c2.6,4.5-.4,9.2-2,11.7-1.3,2-2.7,4-4.1,6.1-3.4,5-6.8,10.1-9.4,15-7.8,14-10.2,25.4-7.1,34.8,4.6,14.4,22,24.2,38.4,31.8,4.4,2.4,8.8,5.3,10,10,1.3,5.1-1.4,9.5-5.2,15.5l-.7,1.1c-17.3,23.4-22.9,50-16.4,77.4,8.4,35.2,35.7,68.2,71.3,86.1,18,8.2,35.3,25.3,43.9,43.5,6.5,16.6,24.5,37.7,39.5,46.4,2,1.1,4.3,1,7.8.7,2.1-.2,4.6-.4,7.2-.1,3,.2,5.2-.6,7.5-1.4,2.1-.8,4.5-1.6,7.3-1.4,3.2,0,6,1.2,8.7,2.2l1,.4c44.8,22.3,118.9,15,168.9,1.9h.7c8.6-1.1,17.2-.5,25.5,0,8.7.6,17,1.1,25.2,0,10.7-.8,19.1-.5,29.7,0,8.7.3,18.7.7,32.7.7,2.2,0,4.4-.1,6.7-.1,28.7,0,63.6,5.5,97.4,10.9,24.7,3.9,48,7.6,68.5,9.2,5.4.3,11.2.8,17.2,1.4,15.4,1.4,31.4,2.9,45,.9,11.3-2.1,13.7-4.7,18.4-9.9,1.4-1.5,2.9-3.2,4.8-5,1.8-1.8,3.5-4,5.3-6.3,3.2-4.2,6.6-8.6,11.7-11.5,6.7-4.2,12.1-1,16.8,1.8,1.5.9,3.2,1.9,5.1,2.8,2.6,1.1,6.1,3.4,10.2,6.2,4.9,3.2,10.4,6.9,14.5,8.5,6,2.3,23.8-6.6,27.2-13.6,3.2-6.7,4.5-9.9,4.2-15.5-.4-5.6-16.3-19-26.5-23.5-1.2-.6-3.5-.9-5.4-1.2-4.5-.7-9.7-1.4-12-5.6-1.3-2.5-1.3-5.4.3-8.6,4.4-9.2,20.2-24.6,31.3-32.2,4.5-3.5,10.3-5,15.5-6.2,3.5-.9,6.8-1.7,8.9-3,20.4-12.3,42.6-33.2,55.7-48.3,27.9-33.6,29.5-71,4.7-108.1l-.3-.5c-1.5-3-3.3-5.3-4.9-7.4-2.5-3.3-5.1-6.7-4.1-10.9,1.1-4.2,5.2-6.6,9.5-8.5,3.6-1.9,8-4,12.7-6.1,10.3-4.7,22-10,28-16.7,6.9-7.9,1.8-35.6-9.5-51.1l-.5-.9c-.6-1.3-2.9-3.7-4.8-5.5-4.6-4.7-12.4-12.5-6.1-19.9,9.5-9.8,22.5-17.4,35-24.9ZM1098.1,648c2.3,1.3,4.6,2.6,6.7,4.1,12.9,10.1,20.5,35.5,13.9,46.2-4.1,6.4-10.3,8.5-15.8,10.4-1.8.6-3.6,1.2-5.4,2-12.5,4.5-29,9.7-41.4,13-3.9.8-13.7,2.9-14.6,5,0,0-.1,1.6,3.7,5.6,28.2,15.8,44.6,36.4,47.4,59.4,3.1,25.4-10.5,53.1-39.3,80l-3.8,3.7c-9.2,9-19.6,19.2-30,23.5l-.6.2c-2.1.6-4.7.9-7.3,1.2-6.9.8-13.5,3.8-18.4,8.5-13.9,13.3-32.4,33.3-40.3,45.8-4,6.6-2.2,8.6.6,10.4,7.8,5.1,19.7,8.5,29.2,11.2,2.1.6,4.1,1.2,6,1.7,6.7,1.3,10.9,3.9,12.5,8,1,2.4,1.3,6.3-2.3,11.3-8.5,13.2-20.5,6.3-26.2,3-5.5-3.2-10.1-6-14.9-8.9-3.2-2-6.5-4-10.3-6.3-1-.5-1.9-1.1-2.9-1.7-2.1-1.3-3.2-1.9-4.2-2.1-1.9,1.2-3.7,3.3-5.5,5.5-4.5,5.4-11.4,13.6-24.5,6.4-19.5-9.8-76.6-30.8-117.5-44.1-33.7-9.7-73-22.6-111-35.1-9.3-3-18.5-6.1-27.5-9-3.2-.7-7.4-1.9-12-3.3-13.6-3.9-31.9-9.2-41.6-6.1.4.4,1,.8,1.8,1,14.8,4.9,29.9,12.1,44.5,19,5.7,2.7,11.2,5.3,16.6,7.8,28.3,13.7,61.4,21.6,93.4,29.3,29,7,59,14.2,86.1,25.6,10.4,4.6,21.5,8,32.3,11.2,10.3,3.1,20.9,6.3,30.7,10.5,6.6,3.5,6.3,7.4,5.5,9.5-3,8.3-34,9.6-52.5,9.6s-11.1-.2-13-.2h0c-7.4-.3-11.9-1.4-16.7-2.6-2.7-.7-5.5-1.3-9-1.9-7.8-1.4-16.4-1.7-24.6-2-5.7-.2-11.7-.4-17.4-1-12.6-1-23.1-3.4-33.2-5.7-6.4-1.4-12.9-2.9-20-4-20.5-3.2-48.8-5.6-73.8-6.1-10.5-.2-19.6-.2-30.1.6-4.4.3-8.4,1.2-12.3,2-6.1,1.3-12.4,2.6-19.9,1.9-8.3-.5-18.4-2.7-27.4-4.8l-5.3-1.2c-1.1-.1-2.6-.4-4-.7-7-1.2-11.5-1.9-14.7,1.1-16.4,13.7-49.6,13.7-73.8,13.7h-6.1c-2.8-.2-5.8-.3-9-.5-24-1.2-60.3-2.9-73.6-18.4-2.6-2.7-10.2-2.5-15,.6l-.4.3c-7.9,4-19.9.2-29.7-9.5-6.2-5.9-11-13.7-13.4-21.8l-.9-3.1c-1.4-5-2-7.5-5-11.4-15-17.6-32.3-32.9-47.4-41.7-.5,0-1.3.2-2.3.5-1.5.4-3.4,1-5.6.9-12.4-.6-20.9-9.6-28.3-17.5-1.7-1.9-3.4-3.7-5.2-5.3-25.2-22.3-35.9-67.4-25.1-107.3l.2-.5c4.5-11.5,17.1-24.9,30-31.8,1.9-1.1,4-2,6.1-2.8,3.3-1.4,6.8-2.9,8.7-4.9.5-1.1.3-1.6.2-1.9-1.9-4.9-16.5-9.4-21.3-10.9l-.7-.2c-19.4-5.2-41.8-18.5-48.1-22.4-10.1-5.9-6.5-16.2-4.8-21.2l.3-.7c1.6-2.9,2.9-6.2,4.3-9.6,2.3-5.7,4.6-11.5,8.6-16.4,4.1-4.8,12.6-11.3,18.1-14.6,1.5-.9,2.7-2.2,3.2-3.3q1.1-2.6.1-4.9l-.7-1.6c-.6-1-2.7-2.9-4.5-4.4-.7-.6-1.4-1.2-2-1.8-9.1-8-37.4-27.3-56.5-33.9-8.9-2.6-15.8-5.1-15-10.9.8-5.6,7.6-6.6,21.6-6.6,11.2-.3,20.3.2,29.1.7,9.1.5,17.7,1,28.6.7,5.1,0,8.2-.7,9.7-2.3,2.4-2.5,2.1-8.6,1.8-15.8,0-1.8-.2-3.8-.2-5.7-.1-4.3.6-11.2,3-16.1,1.5-2.8,2.9-4.5,3.9-5.7.4-.5.9-1.1,1-1.3v-.4s0-.3,0-.3c-.2-3.4-10.1-15.6-13.4-19.5l-1.7-2.1c-5.9-7-9.3-12.2-12.5-17.1-3.2-4.8-6.2-9.4-11.5-15.9l-1.2-1.4c-12.6-15-14.3-16.9-11.3-20.8,2.8-3.7,6.3-2.1,14,1.5,3.6,1.7,8.4,3.9,14.3,6.3,16.3,7.2,33.7,13.4,48,17.2h.4c3.5,1,6.8,1.8,13.8-3.7,15.6-12.3,43.5-37.5,48.7-45.6,0-2-2.3-5-4.3-7.7-2-2.6-4.1-5.2-5.2-8.2-8.5-17.5-8-55.7,1.1-77.4,6.1-14.2,18.9-26.4,37-35.2,20.5-9.7,42.4-11.6,58.6-5.2.4.1,1.1.4,1.8.6,1.8.7,3.8,1.4,5.1,1.3.6-.2,1.4-1.4,1.9-2.2l.2-.2c6.5-11.5,27.9-15.9,49.2-19.4h.6c8.1-2.4,13.7-4.8,18-10.1l1.2-1.3c1.6-1.7,3.5-3.7,7.2-4,44.1.3,95.1.1,149.1,0,52.2-.1,106.2-.3,160.5,0,2.1,0,4,0,5.6,0,11.5-.2,13.2,0,19.7,8.9,1.1,1.5,2.5,3.4,4.3,5.7,2.7,3.9,7.8,4.1,15.8,3.9,5.9-.2,12-.3,17.4,2.1l1.1.7c3.5,2.8,9.3,4.4,14.9,5.9,4.3,1.2,8.7,2.4,12.5,4.2,6.9,2,15.1,1.6,23.1,1.2,4.2-.2,8.5-.5,12.7-.3,21.8-.4,41.2,9.8,54.9,28.5,16.8,22.8,22.1,54.7,13.5,81.1-.9,4-3,8.3-5,12.5-2,4.1-4,8.1-4.5,11.6.5,1.3,2.6,3.2,4.2,4.6,1.5,1.3,3,2.7,4.3,4.3,4.5,4.7,9,9.1,13.4,13.4,4.1,3.9,8.1,7.9,12.2,12.2,2.9,2.8,6.1,6,9.3,9.3,3.4,3.4,6.8,6.9,9.9,9.9l.8.7c.2.2.4.3.5.5,6.1-2.2,16.4-6.9,25.5-11.2,6.1-2.8,11.9-5.5,16.1-7.3,0,0,35-16.3,40.7-13.9l2.1.9.8,2.2c2,6.4-25.9,38.3-27.4,40-3.9,4.5-7.8,8.6-11.3,12.2-13.8,14.3-19.6,21.1-13.3,32.8,4.4,8.2,6.1,14.7,7.4,19.9,1.9,7.4,2.8,11.2,10.5,15.7,9.4,5.5,42.4,5.2,56.5,5.1,12.7-.1,14.7-.1,15.7,4.1.7,3.1.3,4.7-13.1,14.2-7.6,5.4-15.5,10.5-21.2,13.5-3.1,1.9-6.6,3.7-10,5.5-12.6,6.6-23.5,12.2-24.3,25.6-.9,6.3,2.7,9,11.2,13.8Z"/>
      </g>
    </g>
  </g>
</svg>