<?xml version="1.0" encoding="UTF-8"?>
<svg xmlns="http://www.w3.org/2000/svg" version="1.1" viewBox="0 0 1280 1280">
  <defs>
    <style>
      .cls-1 {
        fill: #231f20;
      }
    </style>
  </defs>
  <!-- Generator: Adobe Illustrator 28.6.0, SVG Export Plug-In . SVG Version: 1.2.0 Build 709)  -->
  <g>
    <g id="Layer_1">
      <g>
        <path class="cls-1" d="M559,683.9c-7.9-3-20.1-29.8-31-67.4q-7.4-27.2,1.7-35c7.4-5.6,9.6-12.1,9.6-28.5-.4-19-1.7-21.6-15.7-30.7-10.5-6-19.2-8.6-26.2-6.9-5.7,1.3-16.2.4-23.6-1.7-15.3-5.6-17-1.3-4.4,9.9,7,6,8.7,13.4,8.7,35.4s-1.7,27.2-4.4,27.2-3.1,3,.4,9.5c5.7,10.4,2.2,53.6-5.2,62.2-3.1,3.5-.9,5.6,7.9,6.9,7,1.3,16.2,3.9,21,5.6,7,3,7.9,2.6,3.5-2.6-3.5-3.5-5.7-18.6-5.7-40.2s1.7-32.8,3.5-30.7c2.2,2.6,8.3,18.6,14,35.4,7.4,24.6,13.5,35,26.6,46.7,16.6,14.7,25.8,19,25.8,11.2s-3.1-4.8-6.6-6.5ZM506.6,577.6l-10.9,9.9v-26.4c0-14.7,1.7-26.8,3.9-26.8,21,0,24.9,26.4,7,43.2Z"/>
        <path class="cls-1" d="M614.5,513.2c-5.7,2.2-17.9,3.9-27.5,3.9s-21.4-2.2-26.2-4.3c-4.4-2.6-8.3-3.9-8.7-3.5,0,.9-.4,10.4-.9,21.6l-1.3,20.7,9.2-8.6c5.2-4.8,11.4-8.6,14-8.6s5.7,25.9,7,80.8c1.3,44.9,3.1,83.8,3.5,86.4,1.3,6,7.9,7.8,8.7,2.2,0-1.7,1.3-6.9,3.1-11.7,1.3-4.8,2.2-42.3,1.7-83.4-.4-62.2.4-74.3,5.7-74.3s8.7,3.9,11.8,8.6c8.3,13.4,10.9,10.4,10.5-12.5-.4-20.3-.9-20.7-10.5-17.3Z"/>
        <path class="cls-1" d="M747.7,689.9c-17.9,0-31.9-19.9-49.4-70.9-10-28.5-10-31.1-3.1-35.9,3.9-3,8.7-5.6,10.9-5.6s3.5-12.1,3.5-27.2l-.4-26.8-16.6-7.8c-8.7-3.9-18.3-6.9-20.5-6.5-2.2,0-12.7,1.7-23.6,3-11.8,1.7-17.5,3.9-14.4,6,3.9,2.2,5.2,23.3,5.2,73.4s-.9,70.9-7.4,78.2c-7,7.8-7,8.2,3.5,5.6,6.1-1.7,16.6-3,24-3s11.4-1.3,7.4-5.2c-5.7-5.6-7.4-72.6-1.7-72.6s7.9,14.3,13.5,31.1c5.7,17.3,12.7,36.3,15.7,42.3,9.2,18.1,63.3,40.2,63.3,25.9s-4.4-4.3-10-4.3ZM678.3,573.7c-5.7,4.3-11.4,7.8-13.1,8.2-2.2,0-3.5-11.7-3.5-25.9,0-22,1.3-25.9,7.9-25.9,19.7,0,25.3,29.4,8.7,43.6Z"/>
        <path class="cls-1" d="M796.6,536.6l-19.7-13.8c-10.5-7.8-19.2-12.1-19.2-9.9s-6.6,8.2-14,13.4l-14.4,9.1.9,54.9.4,54.4,17.9,18.6c10,10.4,17.9,15.6,17.9,12.1s7-12.1,15.3-19.4l15.3-13-.4-53.1v-53.1ZM769.1,641.6c-10.5,10.8-19.2-.4-21-27.2-1.3-25.5,1.7-29.8,10-14.3l5.2,9.5,4.8-10.4c3.9-9.5,4.8-8.2,6.1,12.5.9,16.4-.4,25.5-5.2,29.8ZM771.7,586.3c-1.7,0-5.7-2.2-8.7-5.2-3.9-3.9-5.2-3.9-5.2,0s-2.6,5.2-5.7,5.2c-4.8,0-5.7-31.5-.9-46.7,2.2-6.5,11.8-6.9,18.8,0,5.7,5.6,7.4,46.7,1.7,46.7Z"/>
        <path class="cls-1" d="M882.2,594.9c-2.2,0-14.4-6.9-27.1-15.6-24.5-16.4-29.7-29.8-16.6-40.6,5.2-4.3,7.9-4.3,13.1,0,3.9,3,6.1,8.2,4.8,11.7-4.8,12.1,5.2,4.8,16.6-11.7,11.8-18.1,14.8-26.8,6.1-18.1-3.1,3-8.3,5.2-11.8,5.2s-10.9-4.3-16.6-9.1c-8.7-8.6-10-8.6-12.7-2.2-1.3,3.9-7.9,9.9-13.5,13-9.2,4.8-11.4,9.1-11.8,25.5-.4,19.9,0,20.3,24.5,36.3,23.1,15.1,25.3,17.7,25.3,32s-3.1,18.1-7.9,22.5c-7,6.5-8.7,6.5-17.5.4-7.4-4.8-9.2-9.5-7.4-18.1,2.2-9.5.9-8.2-7,5.6-5.2,9.5-13.1,22-17.9,27.6-10.5,13.8-7.9,15.6,9.2,6q14-7.8,23.6,3l9.2,10.8,18.3-18.1c16.6-16,18.3-20.3,20.1-41.9.9-14.3-.4-24.2-3.1-24.2Z"/>
        <path class="cls-1" d="M961.9,512.9c-2.1,0-4,.1-5.5.3-7,.4-21,1.3-30.6,1.3s-21.8-1.3-27.5-3c-9.2-3.5-9.6-2.6-7.4,6.9,1.7,6,.9,14.7-1.7,19.4-6.1,11.7-.4,16,7,5.2,3.5-4.8,10-8.6,14.8-8.6,8.7,0,8.7,2.2,7.9,67.8-.9,67.4,2.6,109.3,9.2,109.3s8.7-41.9,8.7-111.5.9-65.7,6.6-65.7,9.2,4.8,11.8,10.8c7.9,17.3,10.9,12.5,8.7-12.1l-2-20.2Z"/>
        <path class="cls-1" d="M1039.9,662.7c0-7.3,1.7-19.9,3.5-26.8l3.1-13-11.4,11.7c-7.4,8.2-15.7,12.1-24.5,12.1h-13.1l1.3-25.1c1.3-22,2.2-24.6,10-23.3,4.8.9,10.5,4.8,13.1,8.6,3.5,5.6,4.8,2.6,7-14.3,3.1-25.5,2.2-27.6-8.3-18.1-16.2,14.3-22.7,9.5-22.7-16.4s.4-23.8,10.9-23.8,12.2,3,14.4,9.1c4.8,12.1,11.8,3.5,15.7-19,3.1-16,3.1-16.4-6.6-11.2-6.6,3.5-18.3,3.9-36.3,1.7-10.9-1.3-23.1-2.1-31.9-2.1l7,5.9c12.2,11.2,13.5,60.1,1.7,67-7.4,3.9-7.4,4.3,0,6.9,6.1,2.6,7.4,8.6,7.4,32.4s-1.3,30.2-9.6,35.9c-9.6,6.5-7.9,6.9,23.6,4.3,28.8-2.2,34.1-1.3,36.7,4.8,4.4,11.2,8.7,7.8,8.7-7.3Z"/>
        <path class="cls-1" d="M454.6,586.3c-7.4,0-7.9-2.6-5.7-25.9q2.2-25.5-12.7-34.1c-8.3-4.8-14.8-10.8-14.8-13.4,0-7.3-6.1-4.3-16.6,9.1-5.7,6.9-13.1,12.5-16.2,12.5-4.4,0-5.2,5.6-3.5,24.2,2.2,19.9,1.3,25.5-4.8,29.8-6.1,4.8-6.6,5.6-.4,8.2,9.6,3.5,9.2,51-.9,59.2-6.1,5.2-4.8,6.5,12.2,8.6,21.4,3,25.3,1.7,17.9-5.6-3.1-3-5.2-15.6-5.2-28.1,0-20.7,1.3-23.3,11.4-27.2,6.1-2.6,11.8-4.3,13.1-4.3,4.4,0,1.3,54.9-3.5,59.6-3.9,3.9-2.2,5.2,8.3,5.2s17,1.3,21.4,3c7.4,2.6,7.4,2.2.4-7.3-10.5-15.1-10.5-62.6.4-68.7q7-4.3-.9-4.8ZM424.1,586.3c-3.5,0-9.2,1.3-13.1,2.6-5.7,2.2-7-1.3-7-20.7s2.2-25.5,5.2-28.5c3.1-3,6.6-5.2,7.9-5.2,7.9,0,13.1,12.5,13.1,31.1s-1.7,20.7-6.1,20.7Z"/>
        <path class="cls-1" d="M355.9,595.3c0-51,1.3-65.2,7-73,9.2-13.4,5.7-15.6-12.2-8.2-13.1,5.2-16.6,10.8-28.8,41-7.9,19.4-14,37.2-14,39.3,0,14.7-8.3-.4-21.8-38.5-12.7-37.2-16.2-43.2-24.5-43.2s-12.7-1.3-16.6-2.6c-8.7-3.5-9.2,1.3-.4,9.5,10,9.9,9.6,125.3-.9,139.5q-7,10.4,3.5,7.8c5.7-1.7,15.3-3,21-3,8.7,0,9.6-1.3,5.7-5.2-5.7-5.6-7.4-81.2-1.7-81.2s27.1,72.1,27.1,83.4,2.2,7.3,4.4,7.3,4.4-4.3,4.4-9.9c0-12.5,22.7-80.8,27.1-80.8s4.4,76.9-.9,79.9c-6.6,4.3-5.2,10.8,2.6,10.8s12.7,3.9,20.1,9.1c16.2,11.7,20.5,7.8,8.3-7.3-8.3-10.4-9.2-16.8-9.2-74.7Z"/>
        <path class="cls-1" d="M225.4,636.8c1.7-35.4,10.7-38.2-6.9-41.3-12.9-6.6-25.8-17-42.4-30-27.5-23.3-28.8-23.6-28.8-40.9s.8-20,9.5-24.3c9.2-5.2,11.8-5.4,23.6,3.2,7.4,5.2,14.1,8.9,13.9,12.3-.2,3.4-1.6,4.2-3.4,8-1.8,3.8-4.9,12.2,2.6,4.8,3.9-4.3,12.9-17.1,24.7-31.8,15.2-20.2,54.9-47.4,54-50.9-1.2-4.4-5.6-2-18.5,3.8-11.3,7.6-26.5,14.9-31.3,17.9-12.9,8.5-31,7.1-47-4.1-.4-.3-.7-.6-1.1-.9-2.2-2.2-11.6-11.2-13.9-10.8-2.2.4-6.9,8.7-8.3,11.3-.3.6-.7,1.1-1.1,1.5-1.7,1.8-6,6.3-8.5,6.3-2.5,0-9.5-1.8-12.1-2.4-.7-.2-1.3-.4-1.9-.8-13.3-7.5-17.6-3.2-6.1,6.1,8.7,7.3,7.7,10.8-1.5,10.8s-7.2,6.5-6.8,38.9l.4,32.7c0,2.5,1.3,4.8,3.4,6.3l14.2,9.8c9.2,6.5,27.5,19.4,39.7,28.9l19.6,14.5c2,1.5,3.1,3.8,3.1,6.2v22.9c0,24.2-1.3,28.1-13.5,40.2l-8.3,8.5c-2.7,2.8-7.2,3.2-10.3.8l-8-5.9c-11.4-8.2-12.7-11.7-10.9-25.5,3.1-21.2-2.2-20.7-11.8.4-7.9,17.3-35.4,48-42.8,48s-3.1,1.7-1.3,3.9c1.3,2.6,7.4,2.6,15.7-.4,0,0,.1,0,.2,0,6.6-2.4,12.8,4.7,9.6,10.9-9.9,19-27.9,51.9-43.2,73.8-7,9.9-15.1,23-14.2,26,2.2,9.1,59-56.2,69.9-79.9,5.7-11.7,12.2-21.2,15.3-21.2,6.6,0,23.1,20.7,23.1,29.8s3.9-.9,8.3-10.4c12.2-26.4,38.4-54,51.1-54s13.5-3.9,5.7-11.7c-3.1-3-4.4-18.6-3.5-41.5Z"/>
        <path class="cls-1" d="M1196.7,782.8c-19.2-32-29.3-57.9-48-121-6.6-21.6-13.5-44.5-15.7-51.4-6.6-20.7-4.8-26.4,12.7-37.2,16.2-9.9,16.6-11.2,14-28.9-1.7-10.4-1.7-27.2,0-38,2.6-17.3,2.2-19.4-5.2-19.4s-10-2.6,3.1-18.1c14.4-16.8,11.4-19.9-7.9-8.2-14.8,9.1-29.3,12.1-29.3,5.6s-20.4-4-44.8-2.7c-41.5,2.1-66.2-11.6-67.9-7.5-1.3,3.2,26.1,12.2,40.8,28.3,10.5,11.6,10.8,14.7,10.8,54.9s-1.7,43.2-4.8,45.4c-3.5,1.7-3.5,3.9,0,7.3,6.1,6,6.6,82.9.4,94.2-2.6,4.3-8.3,8.2-13.1,8.2s-9.6,1.7-10.9,4.3c-1.3,2.6,1.7,4.3,7,4.3,14,0,37.1,15.6,48,32.8,5.2,8.2,10,14.3,10.9,13.4,1.3-.9-.9-12.5-4.4-25.9-10-38.9-7.9-131.8,3.1-119.7,1.7,2.2,42.8,124,44.1,131.8.9,6,78.2,97.2,82.5,97.2s-.4-8.6-25.3-49.7ZM1118.5,556c-5.2,3.5-13.5,11.2-18.8,16.8l-10,10.4v-39.3c0-21.6-1.3-41.9-2.6-45.8-3.5-9.1,7-9.1,23.6.4,11.4,6.5,13.5,10.4,14.8,29.4,1.7,18.1.4,22.5-7,28.1Z"/>
      </g>
    </g>
  </g>
</svg>